<?xml version="1.0" encoding="UTF-8"?>
<svg version="1.1" xmlns="http://www.w3.org/2000/svg" width="152" height="44">
<path d="M0 0 C50.16 0 100.32 0 152 0 C152 14.52 152 29.04 152 44 C101.84 44 51.68 44 0 44 C0 29.48 0 14.96 0 0 Z " fill="#FAFAFA" transform="translate(0,0)"/>
<path d="M0 0 C1.16789062 0.00644531 2.33578125 0.01289063 3.5390625 0.01953125 C6.375 0.1875 6.375 0.1875 7.375 1.1875 C7.46131874 2.53017413 7.48206473 3.87724322 7.47265625 5.22265625 C7.46943359 6.03154297 7.46621094 6.84042969 7.46289062 7.67382812 C7.45451172 8.52396484 7.44613281 9.37410156 7.4375 10.25 C7.43298828 11.10400391 7.42847656 11.95800781 7.42382812 12.83789062 C7.41200373 14.95445663 7.39406769 17.07098685 7.375 19.1875 C-3.70637303 22.00393701 -3.70637303 22.00393701 -8.5625 19.9375 C-10.625 18.1875 -10.625 18.1875 -12.625 15.1875 C-13.05645362 9.83747517 -13.08151329 6.54014636 -9.625 2.1875 C-6.0174497 -0.21753353 -4.27663611 -0.0521541 0 0 Z " fill="#474652" transform="translate(33.625,14.8125)"/>
<path d="M0 0 C2.8203125 0.0234375 2.8203125 0.0234375 6.125 0.375 C7.22070312 0.48585938 8.31640625 0.59671875 9.4453125 0.7109375 C10.70988281 0.85402344 10.70988281 0.85402344 12 1 C12 2.32 12 3.64 12 5 C10.741875 5.020625 9.48375 5.04125 8.1875 5.0625 C7.47980469 5.07410156 6.77210937 5.08570313 6.04296875 5.09765625 C4 5 4 5 1 4 C1 4.99 1 5.98 1 7 C2.32 7 3.64 7 5 7 C5 7.99 5 8.98 5 10 C3.68 10 2.36 10 1 10 C1 14.95 1 19.9 1 25 C-0.32 25.33 -1.64 25.66 -3 26 C-4 25 -4 25 -4.09765625 21.62109375 C-4.09098369 20.22652923 -4.07902532 18.83198257 -4.0625 17.4375 C-4.05798828 16.72658203 -4.05347656 16.01566406 -4.04882812 15.28320312 C-4.03700864 13.52209987 -4.01907263 11.76103964 -4 10 C-5.98 10.33 -7.96 10.66 -10 11 C-11.00259507 14.00778521 -11.30314642 16.53820647 -11.5625 19.6875 C-11.64628906 20.68136719 -11.73007812 21.67523437 -11.81640625 22.69921875 C-11.87699219 23.45847656 -11.93757813 24.21773437 -12 25 C-13.32 25.33 -14.64 25.66 -16 26 C-16 19.73 -16 13.46 -16 7 C-14.68 7 -13.36 7 -12 7 C-10.453125 6.7215625 -10.453125 6.7215625 -8.875 6.4375 C-6 6 -6 6 -4 7 C-3.71125 6.21625 -3.4225 5.4325 -3.125 4.625 C-2 2 -2 2 0 0 Z " fill="#454450" transform="translate(61,9)"/>
<path d="M0 0 C1.32 0 2.64 0 4 0 C4 1.65 4 3.3 4 5 C5.65 5 7.3 5 9 5 C9 6.32 9 7.64 9 9 C7.35 9 5.7 9 4 9 C4.33 12.63 4.66 16.26 5 20 C6.98 20.66 8.96 21.32 11 22 C10.67 22.99 10.34 23.98 10 25 C7.25 25.75 7.25 25.75 4 26 C1.8125 24.4375 1.8125 24.4375 0 22 C-0.390625 18.765625 -0.390625 18.765625 -0.25 15.25 C-0.21390625 14.07953125 -0.1778125 12.9090625 -0.140625 11.703125 C-0.07101563 10.36507813 -0.07101563 10.36507813 0 9 C-0.99 9 -1.98 9 -3 9 C-3.33 13.95 -3.66 18.9 -4 24 C-5.32 24.33 -6.64 24.66 -8 25 C-8 18.73 -8 12.46 -8 6 C-3 5 -3 5 0 5 C0 3.35 0 1.7 0 0 Z " fill="#464652" transform="translate(107,10)"/>
<path d="M0 0 C3.71279784 1.44386582 4.9486443 3.12236392 6.75 6.625 C7.17796875 7.44226563 7.6059375 8.25953125 8.046875 9.1015625 C8.51867187 10.04128906 8.51867187 10.04128906 9 11 C10.92989676 8.50053485 12.64964178 6.00753888 14.1875 3.25 C14.785625 2.1775 15.38375 1.105 16 0 C17.32 0.33 18.64 0.66 20 1 C19.33036681 4.16052397 18.22491168 6.80770175 16.78515625 9.6953125 C16.34623047 10.57574219 15.90730469 11.45617188 15.45507812 12.36328125 C14.99552734 13.27464844 14.53597656 14.18601562 14.0625 15.125 C13.60681641 16.04410156 13.15113281 16.96320312 12.68164062 17.91015625 C12.24142578 18.78800781 11.80121094 19.66585937 11.34765625 20.5703125 C10.94554932 21.37227051 10.54344238 22.17422852 10.12915039 23.00048828 C9 25 9 25 7 27 C6.01 27 5.02 27 4 27 C4.926783 21.17450683 4.926783 21.17450683 5.75390625 19.203125 C6.1492656 15.66371746 4.28599014 13.49496808 2.5 10.5 C-1.06164384 4.52739726 -1.06164384 4.52739726 -0.71875 1.59375 C-0.4815625 1.0678125 -0.244375 0.541875 0 0 Z " fill="#454450" transform="translate(118,15)"/>
<path d="M0 0 C2.475 0.495 2.475 0.495 5 1 C5.66 0.67 6.32 0.34 7 0 C11.23504073 -0.47943857 13.24861739 -0.5640783 16.7109375 2.03515625 C19.5404973 5.70006391 19.58778696 8.38673266 19.3125 12.8125 C19.28994141 13.50537109 19.26738281 14.19824219 19.24414062 14.91210938 C19.18562661 16.60901573 19.0959548 18.30479861 19 20 C17.68 20 16.36 20 15 20 C14.93941406 19.00097656 14.87882812 18.00195312 14.81640625 16.97265625 C14.69072266 15.03712891 14.69072266 15.03712891 14.5625 13.0625 C14.48128906 11.77472656 14.40007812 10.48695312 14.31640625 9.16015625 C14.35080812 6.13976043 14.35080812 6.13976043 13 5 C10.04195427 4.66659529 10.04195427 4.66659529 7 5 C4.81005752 8.28491373 4.64722661 9.83095639 4.375 13.6875 C4.30023438 14.68136719 4.22546875 15.67523438 4.1484375 16.69921875 C4.09945312 17.45847656 4.05046875 18.21773437 4 19 C2.68 19.33 1.36 19.66 0 20 C0 13.4 0 6.8 0 0 Z " fill="#3E3D4A" transform="translate(76,15)"/>
<path d="M0 0 C2.5 1 2.5 1 4 2 C4 3.32 4 4.64 4 6 C3.484375 5.835 2.96875 5.67 2.4375 5.5 C-0.73363876 4.84951 -3.77218334 4.9379266 -7 5 C-8.36952673 7.73905345 -8.12621361 9.97087332 -8 13 C-7.67 13.66 -7.34 14.32 -7 15 C-1.42169984 15.12469099 -1.42169984 15.12469099 4 14 C4 15.32 4 16.64 4 18 C1.07665255 20.5690023 -0.59625397 21 -4.5 21 C-8.62653166 19.82099095 -10.28809794 18.27023484 -13 15 C-14.43304064 12.13391871 -14.30644155 10.18699217 -14 7 C-10.22404423 0.32914481 -7.50946752 -0.63815633 0 0 Z " fill="#494854" transform="translate(15,15)"/>
<path d="M0 0 C3 0.25 3 0.25 5 2.25 C5.23046875 4.37890625 5.23046875 4.37890625 5.1875 6.8125 C5.17783203 8.02099609 5.17783203 8.02099609 5.16796875 9.25390625 C5 11.25 5 11.25 4 12.25 C0.5625 12.4375 0.5625 12.4375 -3 12.25 C-5 10.25 -5 10.25 -5.265625 8.375 C-5.26046875 7.67375 -5.2553125 6.9725 -5.25 6.25 C-5.25515625 5.54875 -5.2603125 4.8475 -5.265625 4.125 C-4.77431879 0.65695617 -3.28862917 0.27405243 0 0 Z " fill="#F9F9F9" transform="translate(31,18.75)"/>
<path d="M0 0 C0.99 0.33 1.98 0.66 3 1 C3 6.94 3 12.88 3 19 C1.68 19.33 0.36 19.66 -1 20 C-2 19 -2 19 -2.11352539 17.23413086 C-2.10828857 16.48526611 -2.10305176 15.73640137 -2.09765625 14.96484375 C-2.09443359 14.15595703 -2.09121094 13.34707031 -2.08789062 12.51367188 C-2.07951172 11.66353516 -2.07113281 10.81339844 -2.0625 9.9375 C-2.05798828 9.08349609 -2.05347656 8.22949219 -2.04882812 7.34960938 C-2.03700373 5.23304337 -2.01906769 3.11651315 -2 1 C-1.34 0.67 -0.68 0.34 0 0 Z " fill="#494853" transform="translate(70,15)"/>
<path d="M0 0 C0.99 0.33 1.98 0.66 3 1 C3 6.94 3 12.88 3 19 C1.68 19.33 0.36 19.66 -1 20 C-1.02888514 16.85418577 -1.04675923 13.70840531 -1.0625 10.5625 C-1.07087891 9.66466797 -1.07925781 8.76683594 -1.08789062 7.84179688 C-1.09111328 6.98779297 -1.09433594 6.13378906 -1.09765625 5.25390625 C-1.10551147 4.06776733 -1.10551147 4.06776733 -1.11352539 2.85766602 C-1 1 -1 1 0 0 Z " fill="#3A3946" transform="translate(100,15)"/>
<path d="M0 0 C2.97 0 5.94 0 9 0 C9 3.3 9 6.6 9 10 C8.01 10 7.02 10 6 10 C6 8.02 6 6.04 6 4 C4.02 4 2.04 4 0 4 C0 2.68 0 1.36 0 0 Z " fill="#32D1A2" transform="translate(140,3)"/>
<path d="M0 0 C2.97 0 5.94 0 9 0 C9 3.3 9 6.6 9 10 C8.01 10 7.02 10 6 10 C6 7.69 6 5.38 6 3 C3.69 3 1.38 3 -1 3 C-0.67 2.01 -0.34 1.02 0 0 Z " fill="#25CE9C" transform="translate(135,8)"/>
<path d="M0 0 C6.625 -0.25 6.625 -0.25 10 2 C9.38125 2.28875 8.7625 2.5775 8.125 2.875 C5.86674235 3.93720042 5.86674235 3.93720042 4 6 C4 5.01 4 4.02 4 3 C2.68 3 1.36 3 0 3 C0 2.01 0 1.02 0 0 Z " fill="#E3E3E4" transform="translate(62,13)"/>
</svg>
