<?xml version="1.0" encoding="UTF-8"?>
<svg version="1.1" xmlns="http://www.w3.org/2000/svg" width="500" height="500">
<path d="M0 0 C165 0 330 0 500 0 C500 165 500 330 500 500 C335 500 170 500 0 500 C0 335 0 170 0 0 Z " fill="#FEFEFE" transform="translate(0,0)"/>
<path d="M0 0 C0.309375 -0.639375 0.61875 -1.27875 0.9375 -1.9375 C2 -4 2 -4 3 -5 C4.99609375 -4.984375 4.99609375 -4.984375 7.4375 -4.75 C8.24058594 -4.68296875 9.04367188 -4.6159375 9.87109375 -4.546875 C12 -4 12 -4 14 -1 C14.26742554 1.45309448 14.26742554 1.45309448 14.29052734 4.40185547 C14.30328705 5.50665253 14.31604675 6.61144958 14.32919312 7.74972534 C14.33141876 8.94348785 14.33364441 10.13725037 14.3359375 11.3671875 C14.3459227 13.20750046 14.3459227 13.20750046 14.35610962 15.08499146 C14.36624316 17.6824595 14.37092642 20.27995361 14.37060547 22.87744141 C14.37497507 26.85232466 14.41128013 30.8260948 14.44921875 34.80078125 C14.45508739 37.32291286 14.45905646 39.84504976 14.4609375 42.3671875 C14.47530853 43.55690155 14.48967957 44.7466156 14.50448608 45.97238159 C14.45907772 54.17182329 14.45907772 54.17182329 12.19384766 58.25830078 C10 60 10 60 6.4375 60.5 C3 60 3 60 1.0625 58.625 C0 57 0 57 0 55 C-0.74443359 55.39832031 -0.74443359 55.39832031 -1.50390625 55.8046875 C-12.05459993 61.2902474 -21.58179715 62.36394865 -33 59 C-40.9444995 54.87497142 -45.14024639 48.61268254 -48.23828125 40.4296875 C-51.54049061 29.89648637 -50.99295156 19.65406813 -46.484375 9.62109375 C-42.3502309 2.32106561 -36.11699334 -3.10022966 -27.9375 -5.375 C-17.30097396 -7.06333747 -9.42947882 -5.05150651 0 0 Z " fill="#393845" transform="translate(122,194)"/>
<path d="M0 0 C1.70014384 0.9504541 3.39818344 1.90468535 5.09375 2.86328125 C5.80144531 3.16363281 6.50914062 3.46398437 7.23828125 3.7734375 C9.97011824 2.61769739 9.97011824 2.61769739 12.23828125 0.7734375 C15.92578125 0.8984375 15.92578125 0.8984375 19.23828125 1.7734375 C21.5657747 5.26467767 21.74127441 6.66566001 21.23828125 10.7734375 C19.67578125 13.1484375 19.67578125 13.1484375 17.23828125 14.7734375 C13.35788036 15.25848761 11.16212005 15.34195368 7.80078125 13.2734375 C7.28515625 12.7784375 6.76953125 12.2834375 6.23828125 11.7734375 C5.65046875 12.5159375 5.65046875 12.5159375 5.05078125 13.2734375 C3.23828125 14.7734375 3.23828125 14.7734375 0.80078125 15.1484375 C-2.21211655 14.70752563 -3.36306824 13.57242538 -5.76171875 11.7734375 C-8.65054377 11.35068262 -10.07786825 11.30939609 -12.51171875 12.9609375 C-14.04470335 15.18376518 -14.29589151 17.138063 -14.76171875 19.7734375 C-13.93027344 19.73863281 -13.09882813 19.70382813 -12.2421875 19.66796875 C-10.61216797 19.62736328 -10.61216797 19.62736328 -8.94921875 19.5859375 C-7.87027344 19.55113281 -6.79132813 19.51632813 -5.6796875 19.48046875 C-2.76171875 19.7734375 -2.76171875 19.7734375 -0.86328125 21.0625 C0.23828125 22.7734375 0.23828125 22.7734375 0.05078125 26.3359375 C-0.76171875 29.7734375 -0.76171875 29.7734375 -2.76171875 31.7734375 C-5.58203125 31.96875 -5.58203125 31.96875 -8.88671875 31.8984375 C-9.98242188 31.88039062 -11.078125 31.86234375 -12.20703125 31.84375 C-13.05007812 31.82054687 -13.893125 31.79734375 -14.76171875 31.7734375 C-14.75505692 32.36812332 -14.74839508 32.96280914 -14.74153137 33.57551575 C-14.67524595 39.75577395 -14.6299465 45.93593146 -14.59692383 52.11645508 C-14.58182199 54.42411398 -14.56133906 56.73174411 -14.53540039 59.03930664 C-14.499079 62.35309949 -14.48200639 65.66651342 -14.46875 68.98046875 C-14.45326614 70.0149263 -14.43778229 71.04938385 -14.42182922 72.1151886 C-14.42160263 73.0759581 -14.42137604 74.0367276 -14.42114258 75.02661133 C-14.41448074 75.87266434 -14.40781891 76.71871735 -14.4009552 77.59040833 C-14.84339031 80.26764319 -15.63473806 81.14048355 -17.76171875 82.7734375 C-19.69921875 83.171875 -19.69921875 83.171875 -21.76171875 83.1484375 C-22.78265625 83.16003906 -22.78265625 83.16003906 -23.82421875 83.171875 C-26.3738549 82.64755466 -27.15584677 81.80547465 -28.76171875 79.7734375 C-29.1224823 77.59040833 -29.1224823 77.59040833 -29.10229492 75.02661133 C-29.10195503 73.58545708 -29.10195503 73.58545708 -29.10160828 72.1151886 C-29.08612442 71.08073105 -29.07064056 70.0462735 -29.0546875 68.98046875 C-29.05044266 67.91930344 -29.04619781 66.85813812 -29.04182434 65.76481628 C-29.02501581 62.37159985 -28.98735894 58.97897478 -28.94921875 55.5859375 C-28.93417475 53.28711794 -28.92048586 50.98828909 -28.90820312 48.68945312 C-28.8751052 43.05057908 -28.82488405 37.41205053 -28.76171875 31.7734375 C-30.20113952 31.60035034 -31.64100764 31.4309806 -33.08105469 31.26318359 C-33.88283142 31.16846771 -34.68460815 31.07375183 -35.51068115 30.97616577 C-41.22549321 30.46149024 -46.1857377 31.59145171 -50.76171875 35.0234375 C-54.60497327 40.30791247 -55.05908604 45.53602975 -55.10546875 51.91015625 C-55.12009155 52.67141312 -55.13471436 53.43266998 -55.14978027 54.21699524 C-55.21170716 57.45219752 -55.25174983 60.68757953 -55.29345703 63.9230957 C-55.3271675 66.29398595 -55.37225849 68.66447195 -55.41796875 71.03515625 C-55.42324585 71.76643234 -55.42852295 72.49770844 -55.43395996 73.25114441 C-55.5069857 76.95914695 -55.65105144 78.60743653 -57.76171875 81.7734375 C-63.27305295 83.10682481 -63.27305295 83.10682481 -65.76171875 82.7734375 C-68.38290274 80.69018327 -69.62234301 79.48242776 -70.27638245 76.15539551 C-70.28258102 75.1637439 -70.2887796 74.17209229 -70.29516602 73.15039062 C-70.31100235 72.02242065 -70.32683868 70.89445068 -70.34315491 69.7322998 C-70.33819504 68.51868774 -70.33323517 67.30507568 -70.328125 66.0546875 C-70.33432358 64.80465942 -70.34052216 63.55463135 -70.34690857 62.26672363 C-70.35401379 59.62337406 -70.35276459 56.98154517 -70.33813477 54.33837891 C-70.32093893 50.95507238 -70.34445164 47.57346293 -70.37962437 44.19034576 C-70.40689084 40.95760587 -70.3968628 37.72500996 -70.390625 34.4921875 C-70.40388321 33.27857544 -70.41714142 32.06496338 -70.43080139 30.8145752 C-70.33795445 22.45842518 -70.33795445 22.45842518 -67.41381836 18.98242188 C-63.94167162 17.39961136 -62.34359699 17.47786452 -58.76171875 18.7734375 C-56.38671875 21.3359375 -56.38671875 21.3359375 -54.76171875 23.7734375 C-54.03984375 23.1546875 -53.31796875 22.5359375 -52.57421875 21.8984375 C-47.61770926 18.15351922 -43.96347436 17.35998713 -37.76171875 17.7734375 C-34.73276756 18.33381763 -31.74690799 19.0152942 -28.76171875 19.7734375 C-28.84421875 18.5771875 -28.92671875 17.3809375 -29.01171875 16.1484375 C-28.99575203 11.62187145 -27.71850105 9.27489022 -24.76171875 5.7734375 C-18.01254408 -0.90177361 -9.07786547 -4.03175355 0 0 Z " fill="#393844" transform="translate(218.76171875,171.2265625)"/>
<path d="M0 0 C6.15390191 4.58269291 9.82301091 11.56753301 11.11254883 19.06787109 C11.59168594 23.09364501 11.7668809 27.06503104 11.80859375 31.11328125 C11.8166655 31.8707515 11.82473724 32.62822174 11.83305359 33.40864563 C11.84679242 34.99774958 11.85755946 36.58688178 11.86547852 38.17602539 C11.87707352 39.7985094 11.89764199 41.42095311 11.92700195 43.04321289 C11.96957022 45.40016302 11.98582204 47.75599516 11.99609375 50.11328125 C12.01360184 50.836259 12.03110992 51.55923676 12.04914856 52.30412292 C12.03443341 55.71350365 11.8097406 57.58927449 9.76245117 60.36645508 C6.52975106 62.64867871 4.42452521 62.53348954 0.5703125 61.9140625 C-2.46188425 59.14687413 -3.6660519 56.95883361 -3.92797852 52.9375 C-3.94886936 51.38816054 -3.94964768 49.83845963 -3.93359375 48.2890625 C-3.94301498 47.4645459 -3.95243622 46.6400293 -3.96214294 45.79052734 C-3.99073698 43.16478445 -3.99387323 40.53994832 -3.9921875 37.9140625 C-3.9957996 35.28830942 -4.00537612 32.66321381 -4.03294373 30.03759766 C-4.04968196 28.40714805 -4.05264703 26.77648204 -4.03993225 25.14599609 C-4.0829464 20.49505607 -4.74535918 17.70558195 -7.4296875 13.9140625 C-7.4296875 13.2540625 -7.4296875 12.5940625 -7.4296875 11.9140625 C-13.13349489 9.51245939 -19.4883177 8.57490983 -25.453125 10.6015625 C-30.87580131 13.44313961 -35.22376419 18.19168805 -37.4296875 23.9140625 C-37.64181476 26.52037774 -37.75415819 29.02946844 -37.7734375 31.63671875 C-37.7880603 32.37860947 -37.80268311 33.12050018 -37.81774902 33.88487244 C-37.87986437 37.05011148 -37.91964255 40.21554131 -37.96142578 43.38110352 C-37.99515977 45.69568253 -38.04026196 48.00984961 -38.0859375 50.32421875 C-38.0912146 51.03989517 -38.0964917 51.75557159 -38.10192871 52.49293518 C-38.17584988 56.17165117 -38.33383411 57.77028241 -40.4296875 60.9140625 C-42.453125 61.6015625 -42.453125 61.6015625 -44.8046875 61.9140625 C-45.57554687 62.0378125 -46.34640625 62.1615625 -47.140625 62.2890625 C-49.4296875 61.9140625 -49.4296875 61.9140625 -51.53735352 60.16210938 C-54.46120437 55.14354251 -54.0204728 50.27971347 -53.99609375 44.5703125 C-54.00229233 43.36846313 -54.00849091 42.16661377 -54.01487732 40.92834473 C-54.02197433 38.38990081 -54.01880366 35.85141034 -54.00610352 33.31298828 C-53.99223668 29.42784072 -54.02631719 25.54510049 -54.06445312 21.66015625 C-54.0654043 19.19270774 -54.06354559 16.72525622 -54.05859375 14.2578125 C-54.07185196 13.09624634 -54.08511017 11.93468018 -54.09877014 10.73791504 C-53.99518755 1.773797 -53.99518755 1.773797 -51.11303711 -1.34960938 C-48.4296875 -3.0859375 -48.4296875 -3.0859375 -44.8671875 -3.2109375 C-40.90043714 -1.91272829 -39.64945835 -0.54878002 -37.4296875 2.9140625 C-36.92179687 2.57632813 -36.41390625 2.23859375 -35.890625 1.890625 C-35.20226562 1.44460937 -34.51390625 0.99859375 -33.8046875 0.5390625 C-33.13179688 0.09820312 -32.45890625 -0.34265625 -31.765625 -0.796875 C-21.56450374 -6.4262563 -9.97298888 -5.61146841 0 0 Z " fill="#3D3C49" transform="translate(301.4296875,192.0859375)"/>
<path d="M0 0 C4.22064047 3.25956768 6.21119787 7.8202866 8.546875 12.484375 C9.1709726 13.70776581 9.1709726 13.70776581 9.80767822 14.95587158 C11.12908762 17.55027869 12.43965622 20.14998943 13.75 22.75 C14.6464246 24.51468418 15.54355228 26.27901139 16.44140625 28.04296875 C18.63577075 32.35788627 20.82043186 36.67759091 23 41 C23.27954025 40.46477219 23.55908051 39.92954437 23.84709167 39.37809753 C28.82196953 29.85625028 33.8464008 20.36408004 39 10.9375 C39.46833252 10.07543945 39.93666504 9.21337891 40.41918945 8.32519531 C40.85835693 7.5256543 41.29752441 6.72611328 41.75 5.90234375 C42.13671875 5.19585693 42.5234375 4.48937012 42.921875 3.76147461 C44 2 44 2 46 0 C52.00458716 -0.54587156 52.00458716 -0.54587156 54.9375 1.0625 C56.60219876 4.09812716 56.23587601 6.57870376 56 10 C55.04755888 12.49416747 54.08528539 14.67592421 52.8515625 17.015625 C52.52349609 17.6645874 52.19542969 18.3135498 51.85742188 18.98217773 C50.79332843 21.07859691 49.70961021 23.16413305 48.625 25.25 C47.88346494 26.70091639 47.1430737 28.15241791 46.40380859 29.60449219 C44.28908582 33.74674705 42.14989685 37.87590852 40 42 C39.47921875 42.99902344 38.9584375 43.99804688 38.421875 45.02734375 C36.77858847 48.1675321 35.12965951 51.30439848 33.4609375 54.43115234 C31.34780718 58.39596702 29.29965114 62.38440387 27.3125 66.4140625 C26.86310059 67.32510742 26.41370117 68.23615234 25.95068359 69.17480469 C25.09381678 70.9200988 24.24220489 72.66798708 23.39697266 74.41894531 C21.31562543 78.66152459 19.31968627 82.56607351 16 86 C12.5 87.0625 12.5 87.0625 9 87 C6.5625 85.4375 6.5625 85.4375 5 83 C4.03001582 76.35857772 7.62586922 71.74578178 10.88867188 66.27734375 C11.29794922 65.55675781 11.70722656 64.83617187 12.12890625 64.09375 C12.51119385 63.45115234 12.89348145 62.80855469 13.28735352 62.14648438 C14.71420592 57.84881863 13.20481065 54.45867832 11.42114258 50.46411133 C10.75415098 49.1656593 10.07812078 47.87182225 9.39453125 46.58203125 C9.03284348 45.88413986 8.6711557 45.18624847 8.29850769 44.46720886 C7.14421983 42.24485407 5.9784729 40.02874225 4.8125 37.8125 C4.04809196 36.34348179 3.28441344 34.87408373 2.52148438 33.40429688 C-1.18972822 26.27328862 -4.94907982 19.18452434 -8.94238281 12.20581055 C-10.56767851 8.816026 -10.69098456 6.68525097 -10 3 C-7.7773391 -1.05308751 -4.20075589 -0.5158823 0 0 Z " fill="#393845" transform="translate(394,190)"/>
<path d="M0 0 C3.3209374 2.39238583 5.35283152 4.11597131 7.375 7.7109375 C7.375 11.03451733 6.96132088 12.83145618 5.125 15.5859375 C2.53699332 17.24965608 1.41969242 17.33371549 -1.625 16.7109375 C-3.47420684 15.29480018 -5.15815923 13.74871274 -6.87890625 12.1796875 C-11.06470773 8.65874487 -16.04039265 8.23628742 -21.3203125 8.4140625 C-26.40936891 9.06960197 -30.04556998 10.67914645 -33.234375 14.78125 C-36.92596122 21.23115626 -37.68770288 27.39993527 -36.625 34.7109375 C-35.010644 40.4728145 -32.7951563 44.44557563 -27.625 47.7109375 C-22.67424878 50.18631311 -15.99535243 49.39765589 -10.625 48.7109375 C-7.6383743 47.15742608 -5.36881609 45.48613057 -2.87109375 43.2421875 C0.0451719 41.25405509 1.91489348 41.35398016 5.375 41.7109375 C7.78107551 43.23478532 8.25008499 44.21127745 8.9375 46.9609375 C7.93147978 51.87925858 4.59941839 55.2000118 0.51171875 57.9765625 C-8.77994568 62.96687526 -19.49248758 64.25305375 -29.6875 61.5859375 C-38.50149203 58.58336879 -43.90892038 54.33566229 -48.43359375 46.17578125 C-48.82675781 45.36238281 -49.21992187 44.54898438 -49.625 43.7109375 C-49.99753906 42.98132813 -50.37007812 42.25171875 -50.75390625 41.5 C-53.56141813 32.51092609 -53.08696307 20.38220624 -49.125 11.8984375 C-44.70757541 4.58078788 -38.84003639 -0.75107124 -30.71875 -3.62109375 C-20.06927356 -5.92041253 -9.52835959 -5.63761276 0 0 Z " fill="#3A3946" transform="translate(60.625,192.2890625)"/>
<path d="M0 0 C1.703125 1.10546875 1.703125 1.10546875 3 3 C3.29296875 6.35546875 3.29296875 6.35546875 3.1875 10.1875 C3.16042969 11.45980469 3.13335937 12.73210937 3.10546875 14.04296875 C3.07066406 15.01878906 3.03585937 15.99460938 3 17 C4.35544922 16.94779297 4.35544922 16.94779297 5.73828125 16.89453125 C6.91777344 16.86746094 8.09726562 16.84039062 9.3125 16.8125 C10.48425781 16.77769531 11.65601563 16.74289063 12.86328125 16.70703125 C16 17 16 17 17.89453125 18.32421875 C19.62064064 20.94082981 19.38086549 22.95307606 19 26 C17.89453125 27.67578125 17.89453125 27.67578125 16 29 C12.86328125 29.29296875 12.86328125 29.29296875 9.3125 29.1875 C8.13300781 29.16042969 6.95351563 29.13335937 5.73828125 29.10546875 C4.83464844 29.07066406 3.93101562 29.03585938 3 29 C3.09364965 34.05403538 3.19976907 39.10759821 3.31738281 44.16113281 C3.35563327 45.87981011 3.39049303 47.59856638 3.421875 49.31738281 C3.46761128 51.7900004 3.52559084 54.26207613 3.5859375 56.734375 C3.59748871 57.50118591 3.60903992 58.26799683 3.62094116 59.05804443 C3.72502269 62.83188352 3.89444046 65.79363916 6 69 C9.36386726 69.08204554 12.30521816 68.9421138 15.625 68.3125 C19 68 19 68 21.4375 69.0625 C23 71 23 71 23.5 73.9375 C22.89902398 77.61847812 21.87822707 78.71434909 19 81 C13.78884615 83.60557692 4.01607669 82.79094586 -1.47265625 81.3515625 C-6.01041633 79.01785732 -7.87579983 75.41180035 -10 71 C-10.33 70.34 -10.66 69.68 -11 69 C-11.08705146 66.01029711 -11.11550145 63.04415045 -11.09765625 60.0546875 C-11.0962413 59.1696756 -11.09482635 58.2846637 -11.09336853 57.37283325 C-11.0877614 54.54018809 -11.07520771 51.70762136 -11.0625 48.875 C-11.05748592 46.95703239 -11.05292285 45.03906354 -11.04882812 43.12109375 C-11.03778966 38.41403218 -11.02052025 33.7070294 -11 29 C-11.92232422 29.05220703 -11.92232422 29.05220703 -12.86328125 29.10546875 C-13.67152344 29.13253906 -14.47976563 29.15960938 -15.3125 29.1875 C-16.51326172 29.23970703 -16.51326172 29.23970703 -17.73828125 29.29296875 C-20 29 -20 29 -21.76953125 27.67578125 C-23.6691714 25.08865228 -23.38880875 23.11047001 -23 20 C-21.76953125 18.32421875 -21.76953125 18.32421875 -20 17 C-17.73828125 16.70703125 -17.73828125 16.70703125 -15.3125 16.8125 C-14.50425781 16.83957031 -13.69601562 16.86664063 -12.86328125 16.89453125 C-12.24839844 16.92933594 -11.63351562 16.96414062 -11 17 C-11.04640625 15.95199219 -11.0928125 14.90398437 -11.140625 13.82421875 C-11.17814548 12.44534099 -11.21454536 11.06643242 -11.25 9.6875 C-11.28351563 8.99720703 -11.31703125 8.30691406 -11.3515625 7.59570312 C-11.45004811 2.49907296 -11.45004811 2.49907296 -9.20703125 0.01171875 C-5.85512996 -1.52481653 -3.50566485 -0.89235105 0 0 Z " fill="#3A3945" transform="translate(362,173)"/>
<path d="M0 0 C2.90590397 2.0064575 5.23541033 4.21808836 7.625 6.8125 C8.12 7.3075 8.12 7.3075 8.625 7.8125 C8.9336799 11.55412613 8.90346625 15.3097118 8.9375 19.0625 C8.96650391 20.11308594 8.99550781 21.16367188 9.02539062 22.24609375 C9.08926968 30.00002806 9.08926968 30.00002806 6.859375 33.90234375 C0.9927064 38.91773002 -5.19613365 40.5296879 -12.86328125 40.1875 C-18.04120175 39.41443566 -21.07056218 36.55513842 -24.25 32.625 C-27.92399458 26.25833838 -27.60005734 17.88177029 -26.375 10.8125 C-24.48681481 5.86970805 -21.84069166 2.93733313 -17.6875 -0.25 C-11.7009238 -1.94431402 -5.89106884 -2.07278348 0 0 Z " fill="#FBFBFB" transform="translate(113.375,202.1875)"/>
<path d="M0 0 C2.97 0 5.94 0 9 0 C19.86148547 25.51840193 19.86148547 25.51840193 23.6875 34.9375 C24.37392578 36.62166016 24.37392578 36.62166016 25.07421875 38.33984375 C26 41 26 41 26 44 C22.7 44 19.4 44 16 44 C15.01 41.36 14.02 38.72 13 36 C7.39 35.67 1.78 35.34 -4 35 C-4.99 37.97 -5.98 40.94 -7 44 C-10.3 44 -13.6 44 -17 44 C-16.28857713 39.18894319 -14.4939804 34.954627 -12.65625 30.48828125 C-12.32709595 29.67884567 -11.99794189 28.8694101 -11.65881348 28.03544617 C-10.61000126 25.45942624 -9.55499092 22.88599473 -8.5 20.3125 C-7.78997701 18.56981932 -7.08033734 16.82698241 -6.37109375 15.08398438 C-1.20381395 2.4076279 -1.20381395 2.4076279 0 0 Z " fill="#1CCC98" transform="translate(106,265)"/>
<path d="M0 0 C5.52579298 2.8392196 9.11921608 7.67014823 11.0625 13.5 C3.23124102 14.1270581 0.13987975 13.67223808 -5.9375 8.5 C-9.39822566 7.76965205 -12.47922041 7.75646989 -15.9375 8.5 C-19.02548674 10.75057567 -19.02548674 10.75057567 -20.9375 13.5 C-21.2675 13.83 -21.5975 14.16 -21.9375 14.5 C-22.46330895 19.55983371 -22.95417634 24.72836199 -20.0625 29.125 C-17.8432721 31.60531354 -17.00736933 32.36530422 -13.765625 32.7734375 C-7.87722552 33.08332767 -7.87722552 33.08332767 -3 30 C1.46046477 26.35880427 5.51552603 27.05584728 11.0625 27.5 C8.17945725 34.02478095 4.3828479 38.17350111 -1.9375 41.5 C-7.67193413 43.41147804 -14.67939608 43.70171718 -20.39453125 41.59375 C-26.38028555 38.02289849 -30.73262403 33.17239759 -32.9375 26.5 C-33.8073897 19.34859102 -33.8433825 13.06979689 -29.43359375 7.1484375 C-21.40867956 -1.69363505 -11.49265449 -4.41724475 0 0 Z " fill="#1DCC98" transform="translate(254.9375,266.5)"/>
<path d="M0 0 C1.6681366 1.20153809 1.6681366 1.20153809 3 3 C3.3742218 5.5045166 3.3742218 5.5045166 3.37231445 8.52539062 C3.37854324 9.65666382 3.38477203 10.78793701 3.39118958 11.95349121 C3.38197983 13.17540161 3.37277008 14.39731201 3.36328125 15.65625 C3.36377975 16.9100647 3.36427826 18.16387939 3.36479187 19.45568848 C3.36244935 22.1089538 3.35428403 24.76142361 3.33618164 27.41455078 C3.31349426 30.81430068 3.31295075 34.21360619 3.31969929 37.61341095 C3.32384529 40.85689077 3.31186632 44.10029175 3.30078125 47.34375 C3.30169266 48.5656604 3.30260406 49.7875708 3.30354309 51.04650879 C3.29401108 52.17778198 3.28447906 53.30905518 3.2746582 54.47460938 C3.27005081 55.4714978 3.26544342 56.46838623 3.26069641 57.4954834 C3 60 3 60 1 63 C-5.96446602 64.57262136 -5.96446602 64.57262136 -9.09803772 62.83984375 C-11 61 -11 61 -11.50120544 58.45751953 C-11.50137161 57.44286621 -11.50153778 56.42821289 -11.50170898 55.3828125 C-11.51108994 54.23151855 -11.52047089 53.08022461 -11.53013611 51.89404297 C-11.51890213 50.65025879 -11.50766815 49.40647461 -11.49609375 48.125 C-11.4982766 46.21098389 -11.4982766 46.21098389 -11.50050354 44.25830078 C-11.49884189 41.5577231 -11.48932885 38.85854823 -11.46655273 36.15820312 C-11.4381669 32.69777658 -11.44090455 29.23823232 -11.45364285 25.77774048 C-11.46227186 22.47677007 -11.44715402 19.17594276 -11.43359375 15.875 C-11.43652939 14.63121582 -11.43946503 13.38743164 -11.44248962 12.10595703 C-11.42980545 10.95466309 -11.41712128 9.80336914 -11.40405273 8.6171875 C-11.39864975 7.60253418 -11.39324677 6.58788086 -11.38768005 5.54248047 C-10.94137767 2.61554349 -10.32582328 1.76125525 -8 0 C-5.06317146 -1.46841427 -3.13175678 -0.76696084 0 0 Z " fill="#383744" transform="translate(335,190)"/>
<path d="M0 0 C1.65542603 1.20935059 1.65542603 1.20935059 3 3 C3.38095093 5.5045166 3.38095093 5.5045166 3.38818359 8.52539062 C3.39764008 9.65666382 3.40709656 10.78793701 3.4168396 11.95349121 C3.41076691 13.17540161 3.40469421 14.39731201 3.3984375 15.65625 C3.40274277 17.53697205 3.40274277 17.53697205 3.40713501 19.45568848 C3.40917827 22.1089575 3.40513468 24.76139971 3.39111328 27.41455078 C3.37402086 30.81441634 3.38386317 34.21357146 3.40183067 37.61341095 C3.41528089 40.85688278 3.40586234 44.1002689 3.3984375 47.34375 C3.40754654 49.1766156 3.40754654 49.1766156 3.4168396 51.04650879 C3.40738312 52.17778198 3.39792664 53.30905518 3.38818359 54.47460938 C3.38579681 55.4714978 3.38341003 56.46838623 3.38095093 57.4954834 C3 60 3 60 1.69058228 61.79064941 C-1.09569149 63.78379808 -3.63652233 63.88198324 -7 64 C-9.1893158 62.86462402 -9.1893158 62.86462402 -11 61 C-11.5146637 58.41955566 -11.5146637 58.41955566 -11.53344727 55.29101562 C-11.5492836 54.11970093 -11.56511993 52.94838623 -11.58143616 51.74157715 C-11.57647629 50.47591919 -11.57151642 49.21026123 -11.56640625 47.90625 C-11.57260483 46.60804321 -11.57880341 45.30983643 -11.58518982 43.97229004 C-11.59559717 41.2249987 -11.59102832 38.47822522 -11.57641602 35.73095703 C-11.55922012 32.2096645 -11.58272758 28.69000246 -11.61790562 25.16889191 C-11.64514114 21.81041403 -11.63514621 18.45233338 -11.62890625 15.09375 C-11.64216446 13.82809204 -11.65542267 12.56243408 -11.66908264 11.25842285 C-11.65028297 9.50145081 -11.65028297 9.50145081 -11.63110352 7.70898438 C-11.63014175 6.67656616 -11.62917999 5.64414795 -11.62818909 4.58044434 C-11 2 -11 2 -8.65586853 0.13537598 C-5.26948039 -1.31229498 -3.49510819 -1.06372858 0 0 Z " fill="#383744" transform="translate(237,190)"/>
<path d="M0 0 C3.3 0 6.6 0 10 0 C10.33 9.57 10.66 19.14 11 29 C14.96 24.545 14.96 24.545 19 20 C22.40625 19.12109375 22.40625 19.12109375 25.5 19.4375 C26.5415625 19.51871094 27.583125 19.59992188 28.65625 19.68359375 C29.4296875 19.78800781 30.203125 19.89242188 31 20 C27.49102731 24.18423892 23.91939465 28.19588166 20 32 C21.6088092 35.89257858 24.2725959 38.67130239 27.125 41.6875 C32 46.87809917 32 46.87809917 32 48 C27.51936098 48.61472182 23.45714498 48.86398477 19 48 C15.56935789 45.11157164 13.27281394 41.84524413 11 38 C10.67 41.3 10.34 44.6 10 48 C6.7 48 3.4 48 0 48 C0 32.16 0 16.32 0 0 Z " fill="#1DCC98" transform="translate(370,261)"/>
<path d="M0 0 C2.97 0 5.94 0 9 0 C9 7.59 9 15.18 9 23 C10.32 22.01 11.64 21.02 13 20 C16.40135602 19.33632078 19.59005468 19.3930518 23 20 C25.82424288 22.19022918 27.41508603 23.83017207 29 27 C29.08400529 28.59447464 29.10727467 30.19240545 29.09765625 31.7890625 C29.09443359 32.73007812 29.09121094 33.67109375 29.08789062 34.640625 C29.07951172 35.62546875 29.07113281 36.6103125 29.0625 37.625 C29.05798828 38.61757813 29.05347656 39.61015625 29.04882812 40.6328125 C29.03702161 43.08856722 29.01908582 45.54429106 29 48 C25.7 48 22.4 48 19 48 C18.505 38.595 18.505 38.595 18 29 C16.35 28.67 14.7 28.34 13 28 C9.44714606 31.61952948 9.46127923 35.43805462 9.3125 40.25 C9.27833984 40.99507813 9.24417969 41.74015625 9.20898438 42.5078125 C9.12685946 44.33802492 9.06174347 46.16898669 9 48 C6.03 48 3.06 48 0 48 C0 32.16 0 16.32 0 0 Z " fill="#1ACB97" transform="translate(269,261)"/>
<path d="M0 0 C3.79565726 2.02435054 6.20872878 4.26929919 7.69140625 8.28125 C8.36384954 13.29935805 8.24721092 17.10550936 6.06640625 21.71875 C2.49598528 25.57104631 -0.08612208 27.0519249 -5.375 27.59765625 C-10.4425537 27.77637544 -14.26772197 27.7478477 -18.93359375 25.65625 C-22.77963569 21.81020806 -24.45110071 18.29718187 -24.93359375 12.90625 C-24.7977767 7.89799645 -22.40800987 5.31027412 -19.03515625 1.8125 C-14.2580847 -2.42417884 -5.8226122 -1.81279297 0 0 Z " fill="#1FCC99" transform="translate(211.30859375,281.71875)"/>
<path d="M0 0 C2.82145239 2.09800306 4.64053882 3.77148877 6.4375 6.8125 C6.4375 9.1225 6.4375 11.4325 6.4375 13.8125 C-0.8225 13.8125 -8.0825 13.8125 -15.5625 13.8125 C-13.5825 16.7825 -13.5825 16.7825 -11.5625 19.8125 C-8.62806598 19.54593428 -8.62806598 19.54593428 -5.5625 18.8125 C-4.9025 17.8225 -4.2425 16.8325 -3.5625 15.8125 C-1.1796875 15.51953125 -1.1796875 15.51953125 1.5625 15.625 C2.47257812 15.65207031 3.38265625 15.67914063 4.3203125 15.70703125 C5.01898438 15.74183594 5.71765625 15.77664063 6.4375 15.8125 C5.19642597 20.77679611 3.67643588 22.95121828 -0.5625 25.8125 C-5.24067935 28.15158967 -11.48690677 27.31609844 -16.5625 26.8125 C-20.42924429 25.30215093 -22.74687661 23.08912792 -25 19.5625 C-26.13369253 14.02000319 -26.44732167 9.58214335 -23.875 4.4375 C-17.56172762 -2.72891729 -8.73659217 -2.91219739 0 0 Z " fill="#21CD9A" transform="translate(326.5625,282.1875)"/>
<path d="M0 0 C3.3 0 6.6 0 10 0 C10.33 6.27 10.66 12.54 11 19 C12.65 19.33 14.3 19.66 16 20 C17.9756562 17.03651571 18.26376859 16.31979627 18.4140625 12.98828125 C18.45273438 12.23095703 18.49140625 11.47363281 18.53125 10.69335938 C18.57765625 9.51483398 18.57765625 9.51483398 18.625 8.3125 C18.66367188 7.51521484 18.70234375 6.71792969 18.7421875 5.89648438 C18.83632494 3.93136525 18.91924632 1.9657146 19 0 C22.3 0 25.6 0 29 0 C29 9.24 29 18.48 29 28 C25.7 28 22.4 28 19 28 C18.67 27.34 18.34 26.68 18 26 C17.34 26.66 16.68 27.32 16 28 C11.1204893 28.66609194 6.50508091 29.03922253 2.375 26.1875 C0.21660215 22.75368523 -0.12167518 20.07640463 -0.09765625 16.11328125 C-0.09443359 15.17548828 -0.09121094 14.23769531 -0.08789062 13.27148438 C-0.07532227 11.80678711 -0.07532227 11.80678711 -0.0625 10.3125 C-0.05798828 9.32443359 -0.05347656 8.33636719 -0.04882812 7.31835938 C-0.0370432 4.87888042 -0.01910783 2.43943259 0 0 Z " fill="#1ECC98" transform="translate(134,281)"/>
<path d="M0 0 C9.54999038 0.13263876 19.06254389 0.63142549 28.59375 1.23046875 C28.45298111 4.70985926 28.30519333 8.18891934 28.15625 11.66796875 C28.11693359 12.64185547 28.07761719 13.61574219 28.03710938 14.61914062 C27.9122292 17.49138467 27.7625726 20.36048462 27.59375 23.23046875 C27.51809814 24.54748779 27.51809814 24.54748779 27.44091797 25.89111328 C27.24609375 28.328125 27.24609375 28.328125 26.59375 32.23046875 C23.59375 34.23046875 23.59375 34.23046875 20.46875 33.91796875 C17.59375 33.23046875 17.59375 33.23046875 16.59375 32.23046875 C16.49326773 29.44947403 16.45504046 26.69871947 16.46875 23.91796875 C16.46294922 22.7587793 16.46294922 22.7587793 16.45703125 21.57617188 C16.45832031 20.82658203 16.45960938 20.07699219 16.4609375 19.3046875 C16.46206543 18.61979248 16.46319336 17.93489746 16.46435547 17.22924805 C16.60042053 15.12742801 17.02362955 13.2541982 17.59375 11.23046875 C16.70067139 11.2461792 16.70067139 11.2461792 15.78955078 11.26220703 C13.09932657 11.30370824 10.40916963 11.32977579 7.71875 11.35546875 C6.31302734 11.38060547 6.31302734 11.38060547 4.87890625 11.40625 C3.53505859 11.41591797 3.53505859 11.41591797 2.1640625 11.42578125 C1.33664551 11.43625488 0.50922852 11.44672852 -0.34326172 11.45751953 C-2.40625 11.23046875 -2.40625 11.23046875 -4.40625 9.23046875 C-4.65625 5.73046875 -4.65625 5.73046875 -4.40625 2.23046875 C-2.40625 0.23046875 -2.40625 0.23046875 0 0 Z " fill="#1DCC98" transform="translate(449.40625,169.76953125)"/>
<path d="M0 0 C1.93238525 0.07855225 1.93238525 0.07855225 3.90380859 0.15869141 C4.58905609 0.18371735 5.27430359 0.20874329 5.98031616 0.23452759 C8.17145919 0.316777 10.3617072 0.41334439 12.55224609 0.51025391 C14.0365844 0.56848863 15.52095955 0.62579202 17.00537109 0.68212891 C20.64648583 0.82236148 24.28693229 0.97544141 27.92724609 1.13525391 C27.78694026 4.80215362 27.63899189 8.46870803 27.48974609 12.13525391 C27.45042969 13.16521484 27.41111328 14.19517578 27.37060547 15.25634766 C26.70395394 31.35854606 26.70395394 31.35854606 23.92724609 34.13525391 C17.35032302 33.55833083 17.35032302 33.55833083 15.92724609 32.13525391 C15.82655802 29.54105536 15.78854559 26.97921589 15.80224609 24.38525391 C15.79644531 23.31017578 15.79644531 23.31017578 15.79052734 22.21337891 C15.79754616 18.3951419 16.00689352 14.84588176 16.92724609 11.13525391 C16.03416748 11.15096436 16.03416748 11.15096436 15.12304688 11.16699219 C12.43282267 11.2084934 9.74266573 11.23456095 7.05224609 11.26025391 C5.64652344 11.28539062 5.64652344 11.28539062 4.21240234 11.31103516 C2.86855469 11.32070312 2.86855469 11.32070312 1.49755859 11.33056641 C0.6701416 11.34104004 -0.15727539 11.35151367 -1.00976562 11.36230469 C-3.07275391 11.13525391 -3.07275391 11.13525391 -5.07275391 9.13525391 C-5.32275391 5.63525391 -5.32275391 5.63525391 -5.07275391 2.13525391 C-3.07275391 0.13525391 -3.07275391 0.13525391 0 0 Z " fill="#1ECC98" transform="translate(467.07275390625,153.86474609375)"/>
<path d="M0 0 C2.46210589 1.76766576 3.98722254 3.09115799 5.4375 5.75 C5.4375 7.07 5.4375 8.39 5.4375 9.75 C4.00094146 9.83131463 2.5630517 9.88933559 1.125 9.9375 C0.32449219 9.97230469 -0.47601563 10.00710938 -1.30078125 10.04296875 C-4.07908279 9.68308513 -4.72675462 8.77456491 -6.5625 6.75 C-9.10480847 6.33320703 -9.10480847 6.33320703 -11.5625 6.75 C-13.80574836 8.56193006 -13.80574836 8.56193006 -13.7578125 11.1328125 C-13.73460937 12.03773438 -13.71140625 12.94265625 -13.6875 13.875 C-13.66042969 15.24011719 -13.66042969 15.24011719 -13.6328125 16.6328125 C-13.60960937 17.33148438 -13.58640625 18.03015625 -13.5625 18.75 C-10.18785976 19.0003577 -10.18785976 19.0003577 -6.5625 18.75 C-6.0984375 18.255 -5.634375 17.76 -5.15625 17.25 C-3.5625 15.75 -3.5625 15.75 -1.08203125 15.45703125 C-0.18871094 15.49183594 0.70460938 15.52664063 1.625 15.5625 C2.97658203 15.60310547 2.97658203 15.60310547 4.35546875 15.64453125 C5.38607422 15.69673828 5.38607422 15.69673828 6.4375 15.75 C5.04216338 20.18970742 2.87621468 22.65515679 -0.5625 25.75 C-4.97707785 27.95728892 -10.75745478 27.17672543 -15.5625 26.75 C-19.60995778 25.28715477 -22.33302687 22.38756142 -24.5625 18.75 C-25.76893566 15.13069302 -25.88518559 12.55768995 -25.5625 8.75 C-20.21453655 -1.740236 -10.65688138 -3.73925662 0 0 Z " fill="#20CC99" transform="translate(360.5625,282.25)"/>
<path d="M0 0 C3.3 0 6.6 0 10 0 C10 3.63 10 7.26 10 11 C11.65 11 13.3 11 15 11 C15 13.64 15 16.28 15 19 C13.35 19 11.7 19 10 19 C10 25.6 10 32.2 10 39 C6.7 39 3.4 39 0 39 C0 32.4 0 25.8 0 19 C-1.65 19 -3.3 19 -5 19 C-5 16.36 -5 13.72 -5 11 C-3.35 11 -1.7 11 0 11 C0 7.37 0 3.74 0 0 Z " fill="#1FCC99" transform="translate(171,270)"/>
<path d="M0 0 C2 2 2 2 2.3125 5.9375 C2.22787031 8.39176089 2.10592691 9.78814617 1 12 C-2.26205554 13.63102777 -5.43555389 13.51981506 -9 13 C-11 12 -11 12 -12 10 C-12.51048493 7.21553676 -12.60562889 4.7743571 -12 2 C-8.25721535 -1.74278465 -4.9129096 -1.2050533 0 0 Z " fill="#3A3946" transform="translate(336,173)"/>
<path d="M0 0 C1.59352059 3.18704118 1.3829977 6.53174309 1 10 C-0.125 12 -0.125 12 -2 13 C-5.08815875 13.38601984 -7.10184376 13.47901666 -9.875 12 C-11.68954828 8.77413639 -11.52468452 5.60533217 -11 2 C-8.76356255 -2.61265223 -4.23118488 -0.88718393 0 0 Z " fill="#F9FDFC" transform="translate(208,289)"/>
<path d="M0 0 C2.38125464 2.38125464 3.00186241 4.33857567 4.125 7.5 C4.65480469 8.96953125 4.65480469 8.96953125 5.1953125 10.46875 C6 13 6 13 6 15 C2.37 15 -1.26 15 -5 15 C-1.85714286 4.28571429 -1.85714286 4.28571429 0 0 Z " fill="#EEFBF7" transform="translate(110,277)"/>
<path d="M0 0 C2.31 0 4.62 0 7 0 C7.66 1.32 8.32 2.64 9 4 C5.37 4 1.74 4 -2 4 C-1.34 2.68 -0.68 1.36 0 0 Z " fill="#F9FDFC" transform="translate(314,287)"/>
</svg>
