<?xml version="1.0" encoding="UTF-8"?>
<svg version="1.1" xmlns="http://www.w3.org/2000/svg" width="500" height="500">
<path d="M0 0 C165 0 330 0 500 0 C500 165 500 330 500 500 C335 500 170 500 0 500 C0 335 0 170 0 0 Z " fill="#FEFEFE" transform="translate(0,0)"/>
<path d="M0 0 C0.53625 -0.66 1.0725 -1.32 1.625 -2 C4 -4 4 -4 7 -4.4375 C10.38117695 -3.9444117 11.59917014 -3.39214287 14 -1 C14.49447632 1.62513733 14.49447632 1.62513733 14.48583984 4.81665039 C14.4919931 6.01121353 14.49814636 7.20577667 14.50448608 8.4365387 C14.49011505 9.72720749 14.47574402 11.01787628 14.4609375 12.34765625 C14.45855297 13.68379031 14.45764777 15.01992776 14.4581604 16.35606384 C14.45503329 19.15466333 14.43847449 21.95275017 14.41162109 24.7512207 C14.3776079 28.34164987 14.36999344 31.93151664 14.37151146 35.52208805 C14.37096815 38.28016039 14.36000801 41.03810933 14.34550858 43.79614067 C14.33603506 45.76488111 14.33258276 47.73364752 14.32919312 49.70240784 C14.31643341 50.89381882 14.30367371 52.0852298 14.29052734 53.31274414 C14.27909195 54.89134972 14.27909195 54.89134972 14.26742554 56.50184631 C14 59 14 59 12 61 C9.94140625 61.30078125 9.94140625 61.30078125 7.5625 61.3125 C6.38880859 61.33763672 6.38880859 61.33763672 5.19140625 61.36328125 C2.53872837 60.92353251 1.677033 60.04371546 0 58 C-1.05767578 58.44472656 -1.05767578 58.44472656 -2.13671875 58.8984375 C-12.37666521 62.83795305 -21.96553663 64.60331273 -32.54296875 61.09375 C-40.72574567 57.4511784 -44.71897899 51.05469535 -48 43 C-51.11693438 33.64919687 -50.70103436 19.9882749 -46.5 11.0625 C-41.75972921 3.34008702 -35.77563801 -1.67214655 -27 -4 C-25.6078125 -4.37125 -25.6078125 -4.37125 -24.1875 -4.75 C-15.34695413 -5.44337615 -7.99289078 -3.72770394 0 0 Z " fill="#393845" transform="translate(121,213)"/>
<path d="M0 0 C2.12014417 1.06246502 3.94629734 2.30603752 5.73046875 3.8671875 C6.00890625 2.908125 6.00890625 2.908125 6.29296875 1.9296875 C7.73046875 -0.1328125 7.73046875 -0.1328125 11.04296875 -1.1328125 C14.73046875 -1.1328125 14.73046875 -1.1328125 17.66796875 0.4296875 C19.73046875 2.8671875 19.73046875 2.8671875 20.23046875 5.8671875 C19.41651526 10.75090843 19.41651526 10.75090843 16.73046875 12.8671875 C12.02427447 13.56829652 8.73491114 13.53681576 4.73046875 10.8671875 C4.37984375 11.3828125 4.02921875 11.8984375 3.66796875 12.4296875 C1.73046875 13.8671875 1.73046875 13.8671875 -1.76953125 13.6796875 C-5.26953125 12.8671875 -5.26953125 12.8671875 -8.26953125 10.8671875 C-11.59193449 11.1913244 -12.87729428 11.47495053 -15.26953125 13.8671875 C-15.91720918 16.43780061 -15.91720918 16.43780061 -16.26953125 18.8671875 C-15.5940625 18.84398437 -14.91859375 18.82078125 -14.22265625 18.796875 C-12.88460937 18.76980469 -12.88460937 18.76980469 -11.51953125 18.7421875 C-10.19695312 18.70738281 -10.19695312 18.70738281 -8.84765625 18.671875 C-6.10337609 18.87977501 -4.54246898 19.33141876 -2.26953125 20.8671875 C-1.26953125 23.7421875 -1.26953125 23.7421875 -1.26953125 26.8671875 C-2.51953125 29.2421875 -2.51953125 29.2421875 -5.26953125 30.8671875 C-7.94433594 31.02587891 -7.94433594 31.02587891 -10.94140625 30.96875 C-11.9375293 30.95408691 -12.93365234 30.93942383 -13.95996094 30.92431641 C-14.72211914 30.90546387 -15.48427734 30.88661133 -16.26953125 30.8671875 C-16.2606488 31.45965271 -16.25176636 32.05211792 -16.24261475 32.66253662 C-16.15414829 38.82668412 -16.09379999 44.99065143 -16.04980469 51.15527344 C-16.02968437 53.45612919 -16.00238491 55.75693379 -15.96777344 58.05761719 C-15.91927513 61.36406067 -15.89656647 64.66982835 -15.87890625 67.9765625 C-15.85826111 69.00585876 -15.83761597 70.03515503 -15.81634521 71.09564209 C-15.81410775 78.21032203 -15.81410775 78.21032203 -18.10644531 81.51660156 C-21.07968618 83.37303141 -22.82784291 83.44080222 -26.26953125 82.8671875 C-28.43261719 81.51660156 -28.43261719 81.51660156 -30.26953125 78.8671875 C-30.83541653 75.23637326 -30.73369917 71.64316136 -30.66015625 67.9765625 C-30.65449646 66.91681213 -30.64883667 65.85706177 -30.64300537 64.76519775 C-30.62062365 61.38206722 -30.57042223 57.99999766 -30.51953125 54.6171875 C-30.49946865 52.32293197 -30.48121746 50.02865983 -30.46484375 47.734375 C-30.42075305 42.11161747 -30.35382261 36.48947829 -30.26953125 30.8671875 C-31.69060181 30.8837439 -31.69060181 30.8837439 -33.14038086 30.90063477 C-36.26953125 30.8671875 -36.26953125 30.8671875 -38.3359375 30.33203125 C-42.36337982 29.36381784 -46.44146372 30.49825073 -50.26953125 31.8671875 C-53.66804187 34.48911537 -55.56146756 37.64778784 -56.26953125 41.8671875 C-56.36209948 44.57086153 -56.40645884 47.25340785 -56.41015625 49.95703125 C-56.4284784 51.56186322 -56.44804816 53.16668134 -56.46875 54.77148438 C-56.49773927 57.29084821 -56.51953215 59.80931578 -56.52001953 62.32885742 C-56.52335818 64.76821601 -56.55791626 67.20552878 -56.59765625 69.64453125 C-56.59058655 70.39363266 -56.58351685 71.14273407 -56.57623291 71.91453552 C-56.66832593 75.88349027 -57.13230564 77.69328953 -59.62011719 80.84594727 C-62.26953125 82.8671875 -62.26953125 82.8671875 -65.33203125 83.4296875 C-68.97296564 82.7324873 -69.98015932 81.74107872 -72.26953125 78.8671875 C-72.78419495 76.21118164 -72.78419495 76.21118164 -72.80297852 73.15234375 C-72.81881485 72.00435303 -72.83465118 70.8563623 -72.85096741 69.67358398 C-72.84600754 68.43809814 -72.84104767 67.2026123 -72.8359375 65.9296875 C-72.84213608 64.65746338 -72.84833466 63.38523926 -72.85472107 62.07446289 C-72.86182663 59.3840449 -72.860576 56.69512076 -72.84594727 54.00488281 C-72.82875152 50.56105318 -72.85226394 47.1188908 -72.88743687 43.67524719 C-72.91470134 40.38504049 -72.90467542 37.09497532 -72.8984375 33.8046875 C-72.91169571 32.56920166 -72.92495392 31.33371582 -72.93861389 30.06079102 C-72.92608078 28.91280029 -72.91354767 27.76480957 -72.90063477 26.58203125 C-72.899673 25.57261475 -72.89871124 24.56319824 -72.89772034 23.52319336 C-72.26953125 20.8671875 -72.26953125 20.8671875 -69.95274353 18.51000977 C-67.26953125 16.8671875 -67.26953125 16.8671875 -63.70703125 16.8671875 C-60.06476587 17.92675561 -58.6184178 18.95456818 -56.26953125 21.8671875 C-55.36203125 21.2278125 -54.45453125 20.5884375 -53.51953125 19.9296875 C-47.29459905 15.97924976 -41.43882471 16.2916248 -34.33203125 17.8671875 C-32.976074 18.19316053 -31.62120982 18.52390405 -30.26953125 18.8671875 C-30.33140625 17.8565625 -30.39328125 16.8459375 -30.45703125 15.8046875 C-30.25556658 11.57392936 -29.78460924 8.29114103 -27.26953125 4.8671875 C-18.78336687 -2.16510887 -10.33900928 -4.33371646 0 0 Z " fill="#3A3946" transform="translate(220.26953125,192.1328125)"/>
<path d="M0 0 C7.17563169 4.17791714 11.99390138 10.15150423 14.5625 18 C15.45733781 23.09536662 15.70982002 28.07388319 15.6953125 33.234375 C15.69626923 33.99421692 15.69722595 34.75405884 15.69821167 35.53692627 C15.6988878 37.13024987 15.69707339 38.72357632 15.69287109 40.31689453 C15.68748477 42.75689827 15.69285056 45.19672044 15.69921875 47.63671875 C15.69855845 49.19010457 15.69727829 50.74349028 15.6953125 52.296875 C15.69733673 53.02501404 15.69936096 53.75315308 15.70144653 54.50335693 C15.68700448 57.60927411 15.55249404 60.03001787 14.5625 63 C11.33602799 65.2704803 8.42526537 65.56331995 4.5625 65 C1.50742444 62.20170285 0.31814294 60.00487897 0.08007812 55.94750977 C0.06589725 54.3621988 0.07155439 52.77662526 0.09375 51.19140625 C0.08670044 50.34706528 0.07965088 49.5027243 0.0723877 48.63279724 C0.04297281 45.03522818 0.05951527 41.43820515 0.07177734 37.84057617 C0.07416374 35.20719308 0.05321082 32.57468101 0.03125 29.94140625 C0.04256958 29.13498184 0.05388916 28.32855743 0.06555176 27.49769592 C0.01828838 22.19213757 -0.95769212 19.23223152 -4.4375 15 C-8.22340448 11.65949605 -11.9960251 11.42945831 -16.87109375 11.58203125 C-22.37366543 12.47818828 -26.10708181 15.56454879 -29.8125 19.5625 C-33.08001978 24.46377967 -33.71895378 28.01760746 -33.7109375 33.90625 C-33.73122013 35.47005932 -33.75207079 37.03386136 -33.7734375 38.59765625 C-33.79606096 41.05328545 -33.81252051 43.50862671 -33.81835938 45.96435547 C-33.82788066 48.34134389 -33.86164131 50.7170492 -33.8984375 53.09375 C-33.89339203 53.82613892 -33.88834656 54.55852783 -33.88314819 55.31311035 C-33.94920338 58.73714622 -34.19696183 60.6735877 -36.25244141 63.46289062 C-39.45584844 65.71637115 -41.6186991 65.54554299 -45.4375 65 C-48.14944301 62.9225914 -49.29585906 61.73096115 -49.9521637 58.34399414 C-49.95836227 57.33457764 -49.96456085 56.32516113 -49.97094727 55.28515625 C-49.9867836 54.13716553 -50.00261993 52.9891748 -50.01893616 51.80639648 C-50.01397629 50.57091064 -50.00901642 49.3354248 -50.00390625 48.0625 C-50.01010483 46.79027588 -50.01630341 45.51805176 -50.02268982 44.20727539 C-50.02979538 41.5168574 -50.02854475 38.82793326 -50.01391602 36.13769531 C-49.99672027 32.69386568 -50.02023269 29.2517033 -50.05540562 25.80805969 C-50.08267009 22.51785299 -50.07264417 19.22778782 -50.06640625 15.9375 C-50.07966446 14.70201416 -50.09292267 13.46652832 -50.10658264 12.19360352 C-50.09404953 11.04561279 -50.08151642 9.89762207 -50.06860352 8.71484375 C-50.06764175 7.70542725 -50.06667999 6.69601074 -50.06568909 5.65600586 C-49.4375 3 -49.4375 3 -47.12071228 0.64672852 C-44.4375 -1 -44.4375 -1 -40.875 -1.0625 C-36.87435204 0.17406392 -35.66261348 1.52882298 -33.4375 5 C-32.92960937 4.66226563 -32.42171875 4.32453125 -31.8984375 3.9765625 C-31.21007812 3.53054687 -30.52171875 3.08453125 -29.8125 2.625 C-29.13960938 2.18414062 -28.46671875 1.74328125 -27.7734375 1.2890625 C-19.40801457 -3.32730801 -8.74629757 -3.97802508 0 0 Z " fill="#3C3B48" transform="translate(297.4375,210)"/>
<path d="M0 0 C3.06369191 2.65597912 4.93021204 5.33916831 6.76953125 8.9296875 C7.50961426 10.36115112 7.50961426 10.36115112 8.26464844 11.8215332 C9.03083496 13.33299927 9.03083496 13.33299927 9.8125 14.875 C10.60382324 16.41643677 10.60382324 16.41643677 11.41113281 17.98901367 C12.94820505 20.98894328 14.47462978 23.99410822 16 27 C16.77942405 28.51980003 17.55930671 30.03936503 18.33984375 31.55859375 C23 40.70120291 23 40.70120291 23 43 C23.66 43 24.32 43 25 43 C25.1551709 41.95054199 25.1551709 41.95054199 25.31347656 40.87988281 C26.10548208 37.55751542 27.39805111 34.94658993 28.984375 31.921875 C29.89316406 30.17970703 29.89316406 30.17970703 30.8203125 28.40234375 C31.46349362 27.18487045 32.10672307 25.96742268 32.75 24.75 C33.37815594 23.54846539 34.00576501 22.34664471 34.6328125 21.14453125 C36.4078915 17.75540362 38.20100501 14.37647967 40 11 C40.48275391 10.07767578 40.96550781 9.15535156 41.46289062 8.20507812 C42.10774414 6.99754883 42.10774414 6.99754883 42.765625 5.765625 C43.12946289 5.07758789 43.49330078 4.38955078 43.86816406 3.68066406 C45 2 45 2 48 0 C51.04519365 0.1903246 53.24618495 0.54771097 55.875 2.125 C57.66023222 5.10038704 57.61036354 7.68390864 57 11 C55.26970386 15.22694627 53.06287211 19.18246766 50.875 23.1875 C49.50245591 25.749697 48.14144494 28.31794872 46.78125 30.88671875 C46.22623306 31.93078384 46.22623306 31.93078384 45.66000366 32.99594116 C42.42361423 39.11680803 39.34064949 45.30863581 36.28125 51.51953125 C35.79310822 52.50817673 35.30496643 53.4968222 34.80203247 54.51542664 C32.8368943 58.49738518 30.87277965 62.47971419 28.92572021 66.47055054 C27.55057859 69.28695602 26.16311687 72.09699596 24.7734375 74.90625 C24.16163635 76.17327507 24.16163635 76.17327507 23.53747559 77.46589661 C21.22782401 82.10640419 19.09149774 85.75045873 15 89 C11.3125 89 11.3125 89 8 88 C5.45938727 84.1890809 5.51684071 82.53709585 6 78 C7.26417501 74.97081757 8.88694591 72.19331684 10.5625 69.375 C11.43118636 67.91141062 12.28720512 66.44021066 13.12890625 64.9609375 C13.51119385 64.31946777 13.89348145 63.67799805 14.28735352 63.01708984 C15.50574035 59.56854171 14.4189915 56.93971097 12.9753418 53.7019043 C12.55422119 52.91726807 12.13310059 52.13263184 11.69921875 51.32421875 C11.22186279 50.42501709 10.74450684 49.52581543 10.25268555 48.59936523 C9.73617432 47.63844971 9.21966309 46.67753418 8.6875 45.6875 C7.60293722 43.63085621 6.51964579 41.57354157 5.4375 39.515625 C3.70664369 36.23454074 1.97548971 32.95362108 0.2421875 29.67382812 C-1.45934148 26.43672646 -3.1381202 23.18871074 -4.8125 19.9375 C-5.61264526 18.43159302 -5.61264526 18.43159302 -6.42895508 16.89526367 C-10.016299 9.87535212 -10.016299 9.87535212 -9.93359375 5.43359375 C-8.12057504 0.70760773 -4.94075491 -0.86463211 0 0 Z " fill="#393845" transform="translate(394,209)"/>
<path d="M0 0 C5.05095254 2.70528364 10.185618 5.88294181 13 11 C12.85384044 14.72706873 12.65788293 16.34211707 10 19 C6.4286341 19.57141854 4.00397389 19.61599131 0.8671875 17.69140625 C-0.51404925 16.62872041 -1.87264607 15.53574142 -3.203125 14.41015625 C-7.69872613 10.88208667 -13.58467188 11.58821752 -19 12 C-24.51557428 13.7363845 -27.2163575 17.12030798 -30 22 C-32.00649014 28.01947041 -32.1523243 36.02485546 -29.8125 42 C-27.06116069 46.55394093 -23.98646344 50.00890777 -19 52 C-11.62785259 52.92639419 -5.58443325 52.75348216 0.51171875 48.2890625 C1.71971833 47.24276366 2.86995481 46.13004519 4 45 C9.97716895 44.456621 9.97716895 44.456621 13 46.0625 C14.75240922 49.45779286 14.138237 51.40556737 13 55 C7.69259761 61.4109217 1.01183287 64.31485434 -7 66 C-17.83633213 66.8262306 -27.03043946 65.18316611 -35.9609375 58.79296875 C-42.84976364 52.73555266 -46.44381878 44.50619406 -47.3515625 35.51953125 C-47.75443766 25.11899088 -45.65356178 16.57294153 -39.4375 8.125 C-29.76117456 -2.2099235 -12.96380809 -4.93747925 0 0 Z " fill="#3B3A47" transform="translate(54,210)"/>
<path d="M0 0 C3.875 0.875 3.875 0.875 5.875 2.875 C6.01997985 5.45564129 6.06177545 7.92443884 6 10.5 C5.99097656 11.20640625 5.98195313 11.9128125 5.97265625 12.640625 C5.94907603 14.38556098 5.91320461 16.13032295 5.875 17.875 C6.85082031 17.84019531 7.82664062 17.80539063 8.83203125 17.76953125 C10.10433594 17.74246094 11.37664062 17.71539062 12.6875 17.6875 C13.95207031 17.65269531 15.21664062 17.61789063 16.51953125 17.58203125 C19.875 17.875 19.875 17.875 21.796875 19.19921875 C23.50511574 21.85441903 23.32220723 23.80843612 22.875 26.875 C20.47686139 29.37816658 19.12431754 29.85241689 15.640625 30.16796875 C14.48046875 30.13316406 13.3203125 30.09835938 12.125 30.0625 C10.95453125 30.03542969 9.7840625 30.00835937 8.578125 29.98046875 C7.68609375 29.94566406 6.7940625 29.91085938 5.875 29.875 C5.96878695 34.76831525 6.07493625 39.6611504 6.19238281 44.55395508 C6.23058696 46.21729248 6.26545463 47.88071008 6.296875 49.54418945 C6.34271234 51.9399068 6.40067467 54.33507609 6.4609375 56.73046875 C6.47248871 57.4702446 6.48403992 58.21002045 6.49594116 58.97221375 C6.66300007 65.4524296 6.66300007 65.4524296 9.875 70.875 C13.06874865 71.02354645 15.85913074 70.87817385 19 70.25 C21.875 69.875 21.875 69.875 24.1875 70.375 C25.875 71.875 25.875 71.875 27 75.1875 C26.875 78.875 26.875 78.875 24.3984375 81.5703125 C20.55242941 84.53821848 17.0934422 84.59091157 12.375 84.4375 C11.64152344 84.44845703 10.90804688 84.45941406 10.15234375 84.47070312 C4.97395395 84.40122562 1.98465857 83.24024437 -2.125 79.875 C-7.68327733 73.08154993 -8.43701266 65.65440684 -8.3203125 57.21875 C-8.3174826 56.43101196 -8.31465271 55.64327393 -8.31173706 54.83166504 C-8.30065169 52.34594736 -8.2755701 49.8606065 -8.25 47.375 C-8.2399551 45.67708858 -8.23083191 43.97917145 -8.22265625 42.28125 C-8.20075071 38.14569086 -8.16630326 34.01040904 -8.125 29.875 C-11.10351562 29.97265625 -11.10351562 29.97265625 -14.08203125 30.0703125 C-16.125 29.875 -16.125 29.875 -19.125 27.875 C-20.0625 25 -20.0625 25 -20.125 21.875 C-18.6875 19.5 -18.6875 19.5 -16.125 17.875 C-13.36605503 17.54918174 -10.92068665 17.68862089 -8.125 17.875 C-8.17140625 16.91078125 -8.2178125 15.9465625 -8.265625 14.953125 C-8.30171875 13.68984375 -8.3378125 12.4265625 -8.375 11.125 C-8.42140625 9.87203125 -8.4678125 8.6190625 -8.515625 7.328125 C-8.125 3.875 -8.125 3.875 -6.3671875 1.4140625 C-3.83148751 -0.32647025 -2.97339195 -0.53136662 0 0 Z " fill="#383744" transform="translate(359.125,191.125)"/>
<path d="M0 0 C2.79819416 1.52465708 4.75572649 3.60969546 6.828125 5.99609375 C7.323125 6.49109375 7.323125 6.49109375 7.828125 6.99609375 C8.13734712 10.90466139 8.10660339 14.82680444 8.140625 18.74609375 C8.16962891 19.844375 8.19863281 20.94265625 8.22851562 22.07421875 C8.2924061 30.17356471 8.2924061 30.17356471 6.06640625 34.1171875 C0.38489546 38.88648364 -5.55704299 40.66668462 -12.94921875 40.3125 C-17.62679201 39.64662402 -19.70624932 37.49420494 -22.859375 34.12109375 C-27.99386634 27.18259194 -27.93278797 20.40418205 -27.171875 11.99609375 C-25.53529411 6.00769548 -22.16415572 2.50131212 -17.171875 -1.00390625 C-11.17677024 -3.0022745 -5.7414745 -2.36214207 0 0 Z " fill="#FCFCFC" transform="translate(113.171875,223.00390625)"/>
<path d="M0 0 C1.23556641 0.01740234 1.23556641 0.01740234 2.49609375 0.03515625 C3.32238281 0.04417969 4.14867187 0.05320312 5 0.0625 C5.63808594 0.07410156 6.27617187 0.08570313 6.93359375 0.09765625 C9.35951051 6.04050994 11.78003767 11.98553737 14.19677734 17.93212891 C15.02007201 19.95607517 15.8446128 21.97951499 16.67041016 24.00244141 C17.85514754 26.90526134 19.03543494 29.80985547 20.21484375 32.71484375 C20.586698 33.62321991 20.95855225 34.53159607 21.3416748 35.46749878 C21.68202759 36.3082193 22.02238037 37.14893982 22.37304688 38.01513672 C22.67505005 38.75682098 22.97705322 39.49850525 23.28820801 40.26266479 C23.93359375 42.09765625 23.93359375 42.09765625 23.93359375 44.09765625 C20.30359375 44.09765625 16.67359375 44.09765625 12.93359375 44.09765625 C12.27359375 41.12765625 11.61359375 38.15765625 10.93359375 35.09765625 C4.99359375 35.09765625 -0.94640625 35.09765625 -7.06640625 35.09765625 C-7.72640625 38.06765625 -8.38640625 41.03765625 -9.06640625 44.09765625 C-12.69640625 44.09765625 -16.32640625 44.09765625 -20.06640625 44.09765625 C-16.35129514 33.86150622 -12.35296193 23.74855394 -8.25390625 13.66015625 C-7.76172607 12.44481201 -7.2695459 11.22946777 -6.76245117 9.97729492 C-6.06792847 8.27536987 -6.06792847 8.27536987 -5.359375 6.5390625 C-4.73325317 5.00294312 -4.73325317 5.00294312 -4.09448242 3.43579102 C-2.63859694 0.1246974 -2.63859694 0.1246974 0 0 Z " fill="#1DCC98" transform="translate(229.06640625,284.90234375)"/>
<path d="M0 0 C1.23556641 0.01740234 1.23556641 0.01740234 2.49609375 0.03515625 C3.32238281 0.04417969 4.14867188 0.05320312 5 0.0625 C5.63808594 0.07410156 6.27617188 0.08570313 6.93359375 0.09765625 C9.35951051 6.04050994 11.78003767 11.98553737 14.19677734 17.93212891 C15.02007201 19.95607517 15.8446128 21.97951499 16.67041016 24.00244141 C17.85514754 26.90526134 19.03543494 29.80985547 20.21484375 32.71484375 C20.586698 33.62321991 20.95855225 34.53159607 21.3416748 35.46749878 C21.68202759 36.3082193 22.02238037 37.14893982 22.37304688 38.01513672 C22.67505005 38.75682098 22.97705322 39.49850525 23.28820801 40.26266479 C23.93359375 42.09765625 23.93359375 42.09765625 23.93359375 44.09765625 C20.30359375 44.09765625 16.67359375 44.09765625 12.93359375 44.09765625 C12.27359375 41.12765625 11.61359375 38.15765625 10.93359375 35.09765625 C4.99359375 35.09765625 -0.94640625 35.09765625 -7.06640625 35.09765625 C-7.72640625 38.06765625 -8.38640625 41.03765625 -9.06640625 44.09765625 C-12.69640625 44.09765625 -16.32640625 44.09765625 -20.06640625 44.09765625 C-16.35129514 33.86150622 -12.35296193 23.74855394 -8.25390625 13.66015625 C-7.76172607 12.44481201 -7.2695459 11.22946777 -6.76245117 9.97729492 C-6.06792847 8.27536987 -6.06792847 8.27536987 -5.359375 6.5390625 C-4.73325317 5.00294312 -4.73325317 5.00294312 -4.09448242 3.43579102 C-2.63859694 0.1246974 -2.63859694 0.1246974 0 0 Z " fill="#1DCC98" transform="translate(98.06640625,284.90234375)"/>
<path d="M0 0 C1.68469238 1.21524048 1.68469238 1.21524048 3 3 C3.39440918 5.49105835 3.39440918 5.49105835 3.41992188 8.49365234 C3.43583374 9.61847015 3.45174561 10.74328796 3.46813965 11.90219116 C3.46834106 13.11782745 3.46854248 14.33346375 3.46875 15.5859375 C3.47636353 16.83500885 3.48397705 18.0840802 3.49182129 19.3710022 C3.50263771 22.01588652 3.50683526 24.65987834 3.50097656 27.3046875 C3.49508713 30.68674675 3.52563575 34.06736707 3.56609344 37.44914818 C3.59823369 40.68221743 3.59385411 43.91523314 3.59375 47.1484375 C3.6183429 48.96581924 3.6183429 48.96581924 3.64343262 50.81991577 C3.56650306 60.17110301 3.56650306 60.17110301 0.65429688 63.26416016 C-2 65 -2 65 -5.0625 65.625 C-8.99559662 64.78817093 -9.82433628 63.31625173 -12 60 C-12.5146637 57.26170349 -12.5146637 57.26170349 -12.53344727 54.26342773 C-12.5492836 53.13553329 -12.56511993 52.00763885 -12.58143616 50.8455658 C-12.57399635 49.03288963 -12.57399635 49.03288963 -12.56640625 47.18359375 C-12.57260483 45.93498062 -12.57880341 44.68636749 -12.58518982 43.3999176 C-12.59228893 40.76254158 -12.59106133 38.12669331 -12.57641602 35.48950195 C-12.55920274 32.11407078 -12.58276044 28.74033789 -12.61790562 25.36509609 C-12.64516595 22.13790806 -12.63514518 18.91086445 -12.62890625 15.68359375 C-12.64216446 14.47311874 -12.65542267 13.26264374 -12.66908264 12.01548767 C-12.57638876 3.6969844 -12.57638876 3.6969844 -9.68725586 0.20336914 C-6.0190405 -1.43927949 -3.83330898 -1.06480805 0 0 Z " fill="#3E3D4A" transform="translate(237,210)"/>
<path d="M0 0 C2.66533585 2.66533585 2.26354893 3.96300497 2.29052734 7.68725586 C2.3096669 9.47437233 2.3096669 9.47437233 2.32919312 11.29759216 C2.33141876 12.59028519 2.33364441 13.88297821 2.3359375 15.21484375 C2.3423623 16.5500147 2.34909042 17.88518422 2.35610962 19.22035217 C2.36809311 22.02055119 2.37178935 24.82062675 2.37060547 27.62084961 C2.37040218 31.21027405 2.3977085 34.79890759 2.43214989 38.38814449 C2.45438026 41.14624166 2.45844423 43.90414731 2.45738602 46.66232491 C2.46089661 48.62942989 2.48258455 50.59647511 2.50448608 52.5634613 C2.49833282 53.75802444 2.49217957 54.95258759 2.48583984 56.18334961 C2.48868988 57.23654892 2.49153992 58.28974823 2.49447632 59.37486267 C2 62 2 62 0.15713501 63.8361969 C-2.80225067 65.43282493 -4.68515983 65.48341419 -8 65 C-10.69757913 62.91263437 -11.86474095 61.7283645 -12.49447632 58.33726501 C-12.49162628 57.32483231 -12.48877625 56.3123996 -12.48583984 55.26928711 C-12.4919931 54.1180687 -12.49814636 52.96685028 -12.50448608 51.78074646 C-12.49011505 50.54212357 -12.47574402 49.30350067 -12.4609375 48.02734375 C-12.46002106 46.75274796 -12.45910461 45.47815216 -12.4581604 44.16493225 C-12.45211752 41.47033237 -12.43850575 38.77710336 -12.41162109 36.08276367 C-12.37760706 32.63033952 -12.3699937 29.1785004 -12.37151146 25.72592831 C-12.37083682 22.43050895 -12.35316107 19.13521219 -12.3359375 15.83984375 C-12.33371185 14.59919662 -12.33148621 13.3585495 -12.32919312 12.08030701 C-12.31643341 10.93224075 -12.30367371 9.7841745 -12.29052734 8.60131836 C-12.28290375 7.58968124 -12.27528015 6.57804413 -12.26742554 5.53575134 C-12 3 -12 3 -10 0 C-6.25976024 -1.24674659 -3.83399823 -0.76679965 0 0 Z " fill="#383744" transform="translate(336,210)"/>
<path d="M0 0 C4.90409397 2.23695514 7.59288944 5.18577888 10 10 C10.87302198 14.45419379 10.37579076 17.28868177 8.25 21.3125 C5.36939363 24.75322428 3.25412132 26.58195956 -1 28 C-6.54046352 28.48768871 -11.39894848 28.74334535 -16.5 26.375 C-20.4054513 22.66482127 -23.18424363 19.51521124 -23.5 14 C-23.18528853 8.50303965 -20.40529392 5.36926074 -16.5625 1.625 C-11.10238421 -0.86557913 -5.90088116 -0.73667051 0 0 Z " fill="#1ECC98" transform="translate(199,301)"/>
<path d="M0 0 C2.82145239 2.09800306 4.64053882 3.77148877 6.4375 6.8125 C6.4375 9.1225 6.4375 11.4325 6.4375 13.8125 C-0.8225 13.8125 -8.0825 13.8125 -15.5625 13.8125 C-13.5825 16.7825 -13.5825 16.7825 -11.5625 19.8125 C-8.62806598 19.54593428 -8.62806598 19.54593428 -5.5625 18.8125 C-4.9025 17.8225 -4.2425 16.8325 -3.5625 15.8125 C-1.1796875 15.51953125 -1.1796875 15.51953125 1.5625 15.625 C2.47257812 15.65207031 3.38265625 15.67914063 4.3203125 15.70703125 C5.01898438 15.74183594 5.71765625 15.77664063 6.4375 15.8125 C5.19642597 20.77679611 3.67643588 22.95121828 -0.5625 25.8125 C-5.24067935 28.15158967 -11.48690677 27.31609844 -16.5625 26.8125 C-20.42924429 25.30215093 -22.74687661 23.08912792 -25 19.5625 C-26.13369253 14.02000319 -26.44732167 9.58214335 -23.875 4.4375 C-17.56172762 -2.72891729 -8.73659217 -2.91219739 0 0 Z " fill="#21CD9A" transform="translate(339.5625,302.1875)"/>
<path d="M0 0 C3.3 0 6.6 0 10 0 C10.06058594 1.27617187 10.12117187 2.55234375 10.18359375 3.8671875 C10.26799568 5.53647016 10.35264386 7.20574037 10.4375 8.875 C10.47681641 9.71675781 10.51613281 10.55851562 10.55664062 11.42578125 C10.61948242 12.63427734 10.61948242 12.63427734 10.68359375 13.8671875 C10.72025146 14.61081543 10.75690918 15.35444336 10.79467773 16.12060547 C10.89955865 18.08864312 10.89955865 18.08864312 12 20 C14.43717258 19.72965366 14.43717258 19.72965366 17 19 C19.48044315 15.27933528 19.44381173 12.13459526 19.625 7.8125 C19.66367188 7.06291016 19.70234375 6.31332031 19.7421875 5.54101562 C19.83628216 3.69440801 19.91922319 1.8472381 20 0 C23.3 0 26.6 0 30 0 C30 9.24 30 18.48 30 28 C26.7 28 23.4 28 20 28 C19.67 27.34 19.34 26.68 19 26 C18.01 26.66 17.02 27.32 16 28 C12.60789713 28.54618606 9.3934565 28.53580892 6 28 C2.38004179 25.34043887 0.79316183 23.35157649 0 19 C-0.07818636 17.48604304 -0.10789909 15.96906493 -0.09765625 14.453125 C-0.09443359 13.60878906 -0.09121094 12.76445312 -0.08789062 11.89453125 C-0.07951172 11.02183594 -0.07113281 10.14914062 -0.0625 9.25 C-0.05798828 8.36183594 -0.05347656 7.47367187 -0.04882812 6.55859375 C-0.03707422 4.37236684 -0.01913966 2.18617472 0 0 Z " fill="#20CC99" transform="translate(123,301)"/>
<path d="M0 0 C1.19012695 0.00773438 1.19012695 0.00773438 2.40429688 0.015625 C3.23123047 0.03625 4.05816406 0.056875 4.91015625 0.078125 C6.09834961 0.08585938 6.09834961 0.08585938 7.31054688 0.09375 C13.89166837 0.1780558 20.42146124 0.72251093 26.97265625 1.328125 C26.9037813 5.54623997 26.81581887 9.76339505 26.71020508 13.98071289 C26.67696624 15.41517128 26.6489309 16.84976013 26.6262207 18.28442383 C26.59265354 20.34773307 26.54034212 22.40984803 26.484375 24.47265625 C26.45819092 25.71378174 26.43200684 26.95490723 26.4050293 28.23364258 C25.97265625 31.328125 25.97265625 31.328125 24.63208008 33.23706055 C22.06324088 34.92606193 19.95908608 34.6458303 16.97265625 34.328125 C14.97265625 32.328125 14.97265625 32.328125 14.7421875 28.5546875 C14.74618207 27.02077166 14.76095287 25.48685508 14.78515625 23.953125 C14.78580078 23.18484375 14.78644531 22.4165625 14.78710938 21.625 C14.8153022 18.00378801 14.99083623 14.83329592 15.97265625 11.328125 C15.38250732 11.34383545 14.7923584 11.3595459 14.18432617 11.37573242 C11.50970039 11.43810439 8.83522761 11.47712157 6.16015625 11.515625 C5.23138672 11.54076172 4.30261719 11.56589844 3.34570312 11.59179688 C2.00668945 11.60629883 2.00668945 11.60629883 0.640625 11.62109375 C-0.18155518 11.6368042 -1.00373535 11.65251465 -1.85083008 11.66870117 C-4.54505881 11.24711406 -5.40587384 10.48440678 -7.02734375 8.328125 C-7.40234375 5.828125 -7.40234375 5.828125 -7.02734375 3.328125 C-4.87106899 0.55464816 -3.47413026 -0.04612557 0 0 Z " fill="#20CC99" transform="translate(452.02734375,190.671875)"/>
<path d="M0 0 C9.54999038 0.13263876 19.06254389 0.63142549 28.59375 1.23046875 C28.70930929 8.61342319 28.60943761 15.97955107 28.28125 23.35546875 C28.24753296 24.45652954 28.24753296 24.45652954 28.21313477 25.57983398 C28.06163362 28.52912501 27.91871648 30.73482254 26.27734375 33.23828125 C23.38214518 34.94450036 20.73170581 33.92779226 17.59375 33.23046875 C15.88493244 31.52165119 16.46157092 29.38015843 16.45703125 27.10351562 C16.46089844 26.42353516 16.46476562 25.74355469 16.46875 25.04296875 C16.46488281 23.07263672 16.46488281 23.07263672 16.4609375 21.0625 C16.57822559 17.67839366 16.94375756 14.54749366 17.59375 11.23046875 C16.70067139 11.2461792 16.70067139 11.2461792 15.78955078 11.26220703 C13.09932657 11.30370824 10.40916963 11.32977579 7.71875 11.35546875 C6.31302734 11.38060547 6.31302734 11.38060547 4.87890625 11.40625 C3.53505859 11.41591797 3.53505859 11.41591797 2.1640625 11.42578125 C1.33664551 11.43625488 0.50922852 11.44672852 -0.34326172 11.45751953 C-2.40625 11.23046875 -2.40625 11.23046875 -4.40625 9.23046875 C-4.65625 5.73046875 -4.65625 5.73046875 -4.40625 2.23046875 C-2.40625 0.23046875 -2.40625 0.23046875 0 0 Z " fill="#1ECC99" transform="translate(467.40625,174.76953125)"/>
<path d="M0 0 C1.2890625 0.00128906 2.578125 0.00257813 3.90625 0.00390625 C8.62364189 0.57306984 11.18461983 2.12211983 14.5 5.4375 C14.5 6.7575 14.5 8.0775 14.5 9.4375 C11.53 9.4375 8.56 9.4375 5.5 9.4375 C5.17 8.7775 4.84 8.1175 4.5 7.4375 C2.52 7.4375 0.54 7.4375 -1.5 7.4375 C-1.5 8.0975 -1.5 8.7575 -1.5 9.4375 C-0.83613281 9.54707031 -0.17226563 9.65664063 0.51171875 9.76953125 C9.6179771 11.40466961 9.6179771 11.40466961 13.5 14.4375 C15.82749345 17.92874017 16.00299316 19.32972251 15.5 23.4375 C13.6329009 25.74025556 12.14352259 27.11573871 9.5 28.4375 C6.88139265 28.58862939 4.30709118 28.66883862 1.6875 28.6875 C0.61918945 28.7184375 0.61918945 28.7184375 -0.47070312 28.75 C-5.02025591 28.78366922 -7.88873796 28.24474521 -11.5 25.4375 C-13.23523928 22.79332586 -13.5 21.65284057 -13.5 18.4375 C-12.06344146 18.35618537 -10.6255517 18.29816441 -9.1875 18.25 C-7.98673828 18.19779297 -7.98673828 18.19779297 -6.76171875 18.14453125 C-3.9760223 18.50537276 -3.37145884 19.44127723 -1.5 21.4375 C1.62549017 21.68798636 1.62549017 21.68798636 4.5 21.4375 C4.5 20.4475 4.5 19.4575 4.5 18.4375 C3.68015625 18.24414062 2.8603125 18.05078125 2.015625 17.8515625 C0.93796875 17.59117187 -0.1396875 17.33078125 -1.25 17.0625 C-2.85101563 16.67964844 -2.85101563 16.67964844 -4.484375 16.2890625 C-7.07777581 15.55672911 -9.20947952 14.83964104 -11.5 13.4375 C-13.06430248 10.30889505 -12.85627284 7.88147075 -12.5 4.4375 C-8.61141085 0.27537892 -5.56768044 -0.08351521 0 0 Z " fill="#1FCC99" transform="translate(391.5,300.5625)"/>
<path d="M0 0 C1.27746094 -0.0103125 2.55492187 -0.020625 3.87109375 -0.03125 C8.10394428 0.57792214 10.29054549 1.78739626 13.5625 4.5 C14.4375 7.25 14.4375 7.25 14.5625 9.5 C13.10457116 9.55399736 11.64607288 9.59279177 10.1875 9.625 C9.37539063 9.64820313 8.56328125 9.67140625 7.7265625 9.6953125 C5.5625 9.5 5.5625 9.5 3.5625 7.5 C0.47902174 7.33318891 0.47902174 7.33318891 -2.4375 7.5 C-2.7675 8.16 -3.0975 8.82 -3.4375 9.5 C-2.64085937 9.59796875 -1.84421875 9.6959375 -1.0234375 9.796875 C5.16309901 10.66991422 9.78099025 11.36464021 14.5625 15.5 C15.98291821 18.34083641 15.87702272 20.35477278 15.5625 23.5 C13.33043569 26.34780619 12.01257001 27.34997666 8.5625 28.5 C6.12887528 28.67241708 3.68929404 28.76665768 1.25 28.8125 C-0.04550781 28.84988281 -1.34101563 28.88726562 -2.67578125 28.92578125 C-7.02100697 28.43395404 -9.12409434 27.31061269 -12.4375 24.5 C-13.3125 21.25 -13.3125 21.25 -13.4375 18.5 C-11.98007537 18.41903197 -10.52137193 18.36082226 -9.0625 18.3125 C-8.25039063 18.27769531 -7.43828125 18.24289062 -6.6015625 18.20703125 C-5.88742187 18.30371094 -5.17328125 18.40039062 -4.4375 18.5 C-3.7775 19.49 -3.1175 20.48 -2.4375 21.5 C-0.46002878 21.86297936 -0.46002878 21.86297936 1.6875 21.6875 C2.96625 21.625625 4.245 21.56375 5.5625 21.5 C5.2325 20.51 4.9025 19.52 4.5625 18.5 C2.05967854 17.66966608 -0.31376524 17.01218148 -2.875 16.4375 C-10.19157609 14.74592391 -10.19157609 14.74592391 -12.4375 12.5 C-13.07426845 6.86005089 -13.07426845 6.86005089 -12.4375 4.5 C-8.59670017 0.353682 -5.5253091 -0.04451407 0 0 Z " fill="#1FCC99" transform="translate(361.4375,300.5)"/>
<path d="M0 0 C1.2890625 0.00128906 2.578125 0.00257813 3.90625 0.00390625 C8.62364189 0.57306984 11.18461983 2.12211983 14.5 5.4375 C14.5 6.7575 14.5 8.0775 14.5 9.4375 C11.53 9.4375 8.56 9.4375 5.5 9.4375 C5.17 8.7775 4.84 8.1175 4.5 7.4375 C2.52 7.4375 0.54 7.4375 -1.5 7.4375 C-1.5 8.0975 -1.5 8.7575 -1.5 9.4375 C-0.83613281 9.54707031 -0.17226563 9.65664063 0.51171875 9.76953125 C9.6179771 11.40466961 9.6179771 11.40466961 13.5 14.4375 C15.82749345 17.92874017 16.00299316 19.32972251 15.5 23.4375 C13.6329009 25.74025556 12.14352259 27.11573871 9.5 28.4375 C6.88139265 28.58862939 4.30709118 28.66883862 1.6875 28.6875 C0.61918945 28.7184375 0.61918945 28.7184375 -0.47070312 28.75 C-5.02025591 28.78366922 -7.88873796 28.24474521 -11.5 25.4375 C-13.23523928 22.79332586 -13.5 21.65284057 -13.5 18.4375 C-12.06344146 18.35618537 -10.6255517 18.29816441 -9.1875 18.25 C-7.98673828 18.19779297 -7.98673828 18.19779297 -6.76171875 18.14453125 C-3.9760223 18.50537276 -3.37145884 19.44127723 -1.5 21.4375 C1.62549017 21.68798636 1.62549017 21.68798636 4.5 21.4375 C4.5 20.4475 4.5 19.4575 4.5 18.4375 C3.68015625 18.24414062 2.8603125 18.05078125 2.015625 17.8515625 C0.93796875 17.59117187 -0.1396875 17.33078125 -1.25 17.0625 C-2.85101563 16.67964844 -2.85101563 16.67964844 -4.484375 16.2890625 C-7.07777581 15.55672911 -9.20947952 14.83964104 -11.5 13.4375 C-13.06430248 10.30889505 -12.85627284 7.88147075 -12.5 4.4375 C-8.61141085 0.27537892 -5.56768044 -0.08351521 0 0 Z " fill="#1FCC99" transform="translate(296.5,300.5625)"/>
<path d="M0 0 C1.27746094 -0.0103125 2.55492187 -0.020625 3.87109375 -0.03125 C8.10394428 0.57792214 10.29054549 1.78739626 13.5625 4.5 C14.4375 7.25 14.4375 7.25 14.5625 9.5 C13.10457116 9.55399736 11.64607288 9.59279177 10.1875 9.625 C9.37539063 9.64820313 8.56328125 9.67140625 7.7265625 9.6953125 C5.5625 9.5 5.5625 9.5 3.5625 7.5 C0.47902174 7.33318891 0.47902174 7.33318891 -2.4375 7.5 C-2.7675 8.16 -3.0975 8.82 -3.4375 9.5 C-2.64085937 9.59796875 -1.84421875 9.6959375 -1.0234375 9.796875 C5.16309901 10.66991422 9.78099025 11.36464021 14.5625 15.5 C15.98291821 18.34083641 15.87702272 20.35477278 15.5625 23.5 C13.33043569 26.34780619 12.01257001 27.34997666 8.5625 28.5 C6.12887528 28.67241708 3.68929404 28.76665768 1.25 28.8125 C-0.04550781 28.84988281 -1.34101563 28.88726562 -2.67578125 28.92578125 C-7.02100697 28.43395404 -9.12409434 27.31061269 -12.4375 24.5 C-13.3125 21.25 -13.3125 21.25 -13.4375 18.5 C-11.98007537 18.41903197 -10.52137193 18.36082226 -9.0625 18.3125 C-8.25039063 18.27769531 -7.43828125 18.24289062 -6.6015625 18.20703125 C-5.88742187 18.30371094 -5.17328125 18.40039062 -4.4375 18.5 C-3.7775 19.49 -3.1175 20.48 -2.4375 21.5 C-0.46002878 21.86297936 -0.46002878 21.86297936 1.6875 21.6875 C2.96625 21.625625 4.245 21.56375 5.5625 21.5 C5.2325 20.51 4.9025 19.52 4.5625 18.5 C2.05967854 17.66966608 -0.31376524 17.01218148 -2.875 16.4375 C-10.19157609 14.74592391 -10.19157609 14.74592391 -12.4375 12.5 C-13.07426845 6.86005089 -13.07426845 6.86005089 -12.4375 4.5 C-8.59670017 0.353682 -5.5253091 -0.04451407 0 0 Z " fill="#1FCC99" transform="translate(266.4375,300.5)"/>
<path d="M0 0 C3.3 0 6.6 0 10 0 C10 3.63 10 7.26 10 11 C11.65 11 13.3 11 15 11 C15 13.31 15 15.62 15 18 C13.35 18 11.7 18 10 18 C10 24.93 10 31.86 10 39 C6.7 39 3.4 39 0 39 C0 32.4 0 25.8 0 19 C-1.65 19 -3.3 19 -5 19 C-5 16.36 -5 13.72 -5 11 C-3.35 11 -1.7 11 0 11 C0 7.37 0 3.74 0 0 Z " fill="#20CD9A" transform="translate(160,290)"/>
<path d="M0 0 C2.875 -0.125 2.875 -0.125 6 0 C6.66 0.66 7.32 1.32 8 2 C10.37098906 2.28108663 10.37098906 2.28108663 13 2.1875 C13.886875 2.18105469 14.77375 2.17460937 15.6875 2.16796875 C18.02606345 2.14581927 18.02606345 2.14581927 20 1 C20.33 2.98 20.66 4.96 21 7 C26.28 8.32 31.56 9.64 37 11 C37.495 12.98 37.495 12.98 38 15 C37 16 37 16 34.125 16.1875 C31 16 31 16 28 14 C28 13.34 28 12.68 28 12 C25.03 12 22.06 12 19 12 C19.33 13.65 19.66 15.3 20 17 C19.34 17 18.68 17 18 17 C17.64192708 15.01432292 17.28385417 13.02864583 16.92578125 11.04296875 C15.58425935 8.08256388 13.9012955 7.38617452 11 6 C8.9166285 5.36479388 6.80977762 4.80225637 4.6875 4.3125 C3.61886719 4.06113281 2.55023438 3.80976563 1.44921875 3.55078125 C0.64097656 3.36902344 -0.16726563 3.18726563 -1 3 C-0.67 2.01 -0.34 1.02 0 0 Z " fill="#F4FCFA" transform="translate(359,307)"/>
<path d="M0 0 C2.875 -0.125 2.875 -0.125 6 0 C6.66 0.66 7.32 1.32 8 2 C10.37098906 2.28108663 10.37098906 2.28108663 13 2.1875 C13.886875 2.18105469 14.77375 2.17460937 15.6875 2.16796875 C18.02606345 2.14581927 18.02606345 2.14581927 20 1 C20.33 2.98 20.66 4.96 21 7 C26.28 8.32 31.56 9.64 37 11 C37.495 12.98 37.495 12.98 38 15 C37 16 37 16 34.125 16.1875 C31 16 31 16 28 14 C28 13.34 28 12.68 28 12 C25.03 12 22.06 12 19 12 C19.33 13.65 19.66 15.3 20 17 C19.34 17 18.68 17 18 17 C17.64192708 15.01432292 17.28385417 13.02864583 16.92578125 11.04296875 C15.58425935 8.08256388 13.9012955 7.38617452 11 6 C8.9166285 5.36479388 6.80977762 4.80225637 4.6875 4.3125 C3.61886719 4.06113281 2.55023438 3.80976563 1.44921875 3.55078125 C0.64097656 3.36902344 -0.16726563 3.18726563 -1 3 C-0.67 2.01 -0.34 1.02 0 0 Z " fill="#F4FCFA" transform="translate(264,307)"/>
<path d="M0 0 C2 1.1875 2 1.1875 3 3 C3.52979878 6.5572204 3.43204232 8.31593299 1.5 11.375 C-2.24099229 13.80664499 -4.57426418 13.49174842 -9 13 C-11 12 -11 12 -12 10 C-12.45457015 7.2380548 -12.49885457 4.75803506 -12 2 C-8.95002765 -2.19371198 -4.51457706 -1.23647652 0 0 Z " fill="#3E3D49" transform="translate(336,192)"/>
<path d="M0 0 C2 2 2 2 2.3125 5.375 C2 9 2 9 0.9375 11.4375 C-1 13 -1 13 -4.5 13.5 C-8 13 -8 13 -9.9375 11.4375 C-11.40708036 8.06610977 -11.46268457 5.63537875 -11 2 C-7.87890362 -1.99500336 -4.5824922 -1.10319257 0 0 Z " fill="#F6FDFB" transform="translate(197,309)"/>
<path d="M0 0 C0.66 0 1.32 0 2 0 C2.67260351 1.76858691 3.33788395 3.53996016 4 5.3125 C4.37125 6.29863281 4.7425 7.28476562 5.125 8.30078125 C6 11 6 11 6 14 C2.7 14 -0.6 14 -4 14 C-2 4.42857143 -2 4.42857143 0 0 Z " fill="#F2FCF9" transform="translate(230,298)"/>
<path d="M0 0 C0.66 0 1.32 0 2 0 C2.67260351 1.76858691 3.33788395 3.53996016 4 5.3125 C4.37125 6.29863281 4.7425 7.28476562 5.125 8.30078125 C6 11 6 11 6 14 C2.7 14 -0.6 14 -4 14 C-2 4.42857143 -2 4.42857143 0 0 Z " fill="#F2FCF9" transform="translate(99,298)"/>
<path d="M0 0 C0.5625 1.9375 0.5625 1.9375 1 4 C0 5 0 5 -2.875 5.1875 C-6 5 -6 5 -9 3 C-9 2.34 -9 1.68 -9 1 C-11.97 1 -14.94 1 -18 1 C-17.67 2.65 -17.34 4.3 -17 6 C-17.66 6 -18.32 6 -19 6 C-19 4.02 -19 2.04 -19 0 C-12.41816638 -0.8931507 -6.57849492 -0.95494281 0 0 Z " fill="#DAF6EE" transform="translate(396,318)"/>
<path d="M0 0 C0.5625 1.9375 0.5625 1.9375 1 4 C0 5 0 5 -2.875 5.1875 C-6 5 -6 5 -9 3 C-9 2.34 -9 1.68 -9 1 C-11.97 1 -14.94 1 -18 1 C-17.67 2.65 -17.34 4.3 -17 6 C-17.66 6 -18.32 6 -19 6 C-19 4.02 -19 2.04 -19 0 C-12.41816638 -0.8931507 -6.57849492 -0.95494281 0 0 Z " fill="#DAF6EE" transform="translate(301,318)"/>
<path d="M0 0 C0.33 1.32 0.66 2.64 1 4 C-1.70879335 5.35439668 -4.00933268 5.06501451 -7 5 C-7.66 3.68 -8.32 2.36 -9 1 C-11.97 1 -14.94 1 -18 1 C-18.33 1.66 -18.66 2.32 -19 3 C-19 2.01 -19 1.02 -19 0 C-12.41816638 -0.8931507 -6.57849492 -0.95494281 0 0 Z " fill="#D6F5EC" transform="translate(366,318)"/>
<path d="M0 0 C0.33 1.32 0.66 2.64 1 4 C-1.70879335 5.35439668 -4.00933268 5.06501451 -7 5 C-7.66 3.68 -8.32 2.36 -9 1 C-11.97 1 -14.94 1 -18 1 C-18.33 1.66 -18.66 2.32 -19 3 C-19 2.01 -19 1.02 -19 0 C-12.41816638 -0.8931507 -6.57849492 -0.95494281 0 0 Z " fill="#D6F5EC" transform="translate(271,318)"/>
<path d="M0 0 C2.31 0 4.62 0 7 0 C7.66 1.32 8.32 2.64 9 4 C5.37 4 1.74 4 -2 4 C-1.34 2.68 -0.68 1.36 0 0 Z " fill="#F9FDFC" transform="translate(327,307)"/>
<path d="M0 0 C1.98 0 3.96 0 6 0 C6.33 1.32 6.66 2.64 7 4 C4.69 4 2.38 4 0 4 C0 2.68 0 1.36 0 0 Z " fill="#F0FBF8" transform="translate(390,307)"/>
<path d="M0 0 C1.98 0 3.96 0 6 0 C6.33 1.32 6.66 2.64 7 4 C4.69 4 2.38 4 0 4 C0 2.68 0 1.36 0 0 Z " fill="#F0FBF8" transform="translate(295,307)"/>
</svg>
